<svg width="1440" height="261" viewBox="0 0 1440 261" fill="none" xmlns="http://www.w3.org/2000/svg">
<path opacity="0.8" d="M1565.54 593.567C1441.85 576.617 1327.89 540.642 1200.74 530.379C1098.68 522.192 1002.23 546.753 903.412 556.9C849.785 562.435 795.941 565.087 741.448 566.47C682.415 567.969 644.141 579.961 600.244 601.639C548.779 627.006 504.882 659.062 443.903 678.318C370.381 701.725 308.969 683.276 254.909 655.602C195.011 624.931 147.438 584.458 105.272 544.331C73.9168 514.582 49.9142 485.41 1.04402 462.463C-33.9868 446.09 -78.9647 430.985 -127.619 434.213C-218.655 440.094 -262.12 501.091 -291.961 539.142M1554.29 552.172C1434.28 533.262 1320.97 496.249 1195.34 488.408C1091.54 481.95 1010.88 515.851 915.521 531.302C865.354 539.488 813.456 543.063 761.343 538.451C726.744 535.337 709.229 530.725 674.631 537.759C650.412 542.717 628.139 551.711 607.596 560.013C549.86 583.536 498.611 615.014 432.01 631.734C353.947 651.336 299.887 625.853 246.476 597.027C156.737 548.713 92.9459 482.527 -8.25427 438.134C-46.9612 421.184 -93.2365 402.735 -144.702 400.083C-239.631 395.124 -289.149 448.511 -323.748 486.793M1533.53 504.897C1423.04 487.37 1317.51 453.585 1202.47 445.629C1090.89 437.903 1027.53 480.682 930.874 500.976C882.437 511.123 832.053 514.006 782.102 504.551C750.963 498.67 734.961 488.062 700.363 490.714C670.522 493.02 643.276 501.668 617.759 509.855C562.835 527.497 512.667 551.25 452.12 563.703C370.814 580.307 315.889 551.942 254.477 526.574C164.521 489.445 74.3491 451.625 -16.6878 414.842C-59.5032 397.546 -106.644 377.252 -160.271 370.679C-254.119 359.264 -307.097 405.387 -345.804 442.977M1505.42 461.541C1405.95 448.511 1314.7 417.725 1213.72 408.846C1095.22 398.353 1045.27 447.704 948.174 471.919C892.6 485.871 842 483.68 790.319 465.807C764.802 456.929 750.314 444.937 718.311 443.553C693.011 442.515 669.441 447.704 646.303 452.662C587.053 465.462 532.777 487.139 469.419 494.288C393.735 502.706 332.972 473.302 268.1 457.159C170.36 432.83 70.2406 426.834 -21.6612 393.625C-65.9904 377.598 -112.266 357.304 -166.326 351.654C-251.957 342.775 -303.421 378.635 -345.156 413.112M1471.69 431.907C1377.84 423.836 1306.27 385.093 1212.42 378.29C1102.14 370.218 1053.05 428.679 965.04 451.625C910.98 465.807 858.867 460.503 812.159 440.325C756.802 416.456 742.53 394.433 665.116 405.271C602.19 414.15 544.887 433.867 479.366 438.018C408.656 442.4 340.324 410.345 276.317 403.311C223.987 397.546 166.9 406.194 111.759 402.273C64.1863 398.929 21.8031 384.862 -18.2012 371.602C-59.503 357.88 -102.751 340.815 -151.405 335.395C-225.359 327.209 -274.445 350.846 -318.991 379.788M1449.2 406.886C1376.33 381.979 1299.35 345.542 1207.01 348.079C1109.27 350.847 1058.02 403.657 976.933 425.681C920.927 440.901 866.867 436.289 817.565 415.418C763.072 392.357 748.152 366.413 671.603 373.331C608.029 379.097 550.293 396.969 486.286 402.158C413.629 408.039 349.406 383.594 281.507 380.48C175.333 375.407 87.9724 379.212 -11.9303 348.656C-110.752 318.445 -190.328 299.996 -286.122 344.735M1478.18 377.598C1399.9 341.046 1304.54 302.302 1195.12 320.175C1105.6 334.819 1060.4 381.288 977.798 401.12C919.63 415.072 863.408 407.001 814.537 386.361C766.532 366.067 747.071 342.545 680.037 343.813C623.814 344.851 568.024 358.111 514.181 365.26C430.712 376.329 370.382 365.606 288.859 362.147C183.55 357.65 91.4322 351.423 -5.87564 326.171C-91.939 303.801 -175.407 291.463 -265.795 314.64M1531.37 346.926C1431.47 298.728 1301.29 253.412 1168.09 292.732C1094.35 314.525 1049.81 359.149 972.176 376.675C842.432 405.963 793.995 319.137 681.334 314.756C623.166 312.565 560.889 324.441 505.964 332.628C475.906 337.125 440.659 344.62 409.737 346.696C372.976 349.117 331.891 345.196 295.563 343.697C190.038 339.546 95.9732 321.213 -5.22697 305.07C-91.7228 291.233 -190.112 291.348 -279.635 295.499M1579.16 317.177C1467.8 263.905 1299.56 200.486 1153.6 256.756C1085.05 283.161 1046.13 332.282 966.554 350.039C842.649 377.598 786.643 295.038 678.523 285.468C545.535 273.591 433.74 330.091 302.266 325.594C192.2 321.789 88.1887 294.116 -20.1474 283.392C-141.242 271.4 -262.552 260.215 -386.025 264.712M1593 290.311C1472.12 233.695 1311.24 178.924 1153.82 229.313C1080.73 252.72 1041.16 299.304 962.662 318.215C846.757 346.004 781.237 273.822 684.794 256.526C630.95 246.84 572.998 253.066 521.317 263.559C449.093 278.088 388.762 311.181 307.239 305.646C245.611 301.495 188.308 288.004 129.923 277.511C76.7279 267.826 22.8843 262.867 -32.0406 256.526C-157.243 242.112 -277.472 224.24 -407 227.468M1576.78 265.058C1456.34 215.476 1308.43 171.429 1157.93 210.864C1078.35 231.735 1021.26 271.515 933.686 285.237C823.836 302.533 764.802 253.528 672.252 234.848C534.507 206.944 420.765 282.585 288.643 272.899C185.064 265.289 74.9977 244.88 -27.7161 229.544C-142.107 212.363 -245.686 188.725 -366.78 190.455M1547.81 240.152C1432.12 199.564 1296.97 163.473 1159.22 194.721C1066.46 215.707 994.665 246.84 890.438 254.45C784.264 262.176 720.041 233.58 628.139 213.747C501.639 186.419 382.058 240.959 255.774 236.347C167.765 233.234 65.4834 218.82 -17.5527 202.793C-117.455 183.421 -205.248 155.978 -314.666 156.439M1517.96 215.131C1412.87 185.958 1296.32 154.133 1175.87 174.543C1120.95 183.882 1076.62 203.485 1020.61 211.556C964.392 219.627 904.493 222.971 846.325 223.778C742.746 225.277 659.061 211.325 565.646 190.224C452.336 164.626 336.215 197.834 220.743 199.333C143.33 200.371 61.5912 192.53 -10.2004 177.079C-105.778 156.439 -189.247 127.267 -295.637 128.535M1498.72 189.994C1390.82 172.006 1296.54 134.992 1178.9 153.211C1121.81 162.089 1075.75 181.807 1016.72 187.687C951.201 194.145 881.356 192.415 815.186 191.147C720.257 189.417 610.624 190.685 522.614 169.584C416.657 144.101 307.456 155.401 195.66 164.741C122.787 170.737 60.2939 166.702 -8.6865 150.905C-104.264 128.996 -183.841 100.054 -292.609 106.627M1496.12 164.741C1384.98 138.913 1301.94 109.855 1176.74 130.034C1118.79 139.374 1071.86 156.439 1010.67 160.014C943.632 163.934 874.868 161.397 807.618 159.207C745.557 157.131 683.28 153.441 621.003 154.133C577.106 154.594 542.725 158.169 501.207 149.29C400.655 127.843 296.428 121.155 189.822 136.261C17.2624 160.706 -113.563 67.0764 -287.852 87.947M1493.96 140.527C1387.36 99.8237 1298.48 84.1419 1171.98 107.664C1114.03 118.388 1066.46 131.533 1004.4 133.493C938.443 135.569 872.057 132.571 806.32 130.611C743.395 128.766 677.225 125.076 614.083 129.227C573.863 131.879 540.562 138.797 500.341 131.764C460.553 124.845 427.901 112.738 385.951 108.126C325.187 101.553 249.504 101.553 190.254 109.74C19.2085 133.263 -110.752 37.9038 -282.446 69.6131M1490.72 117.004C1437.52 90.7145 1379.14 64.4245 1302.81 64.3091C1248.53 64.3091 1197.93 78.3766 1149.06 89.1002C1036.4 114.006 925.252 105.704 805.455 102.937C746.206 101.553 683.28 99.0165 624.463 105.474C579.269 110.432 545.103 122.424 498.179 115.159C452.552 108.126 414.062 92.0981 367.57 85.5256C311.997 77.6847 245.395 75.8398 190.254 83.2194C19.6409 105.935 -111.184 7.924 -279.419 48.7426M1488.12 93.2513C1434.93 61.6572 1372.22 27.0652 1285.29 33.5223C1229.5 37.6734 1184.74 56.699 1134.79 68.8062C1035.1 92.9053 910.115 76.5317 804.591 75.0327C747.287 74.2256 681.766 72.496 626.409 82.5277C581.431 90.7145 550.725 105.128 500.99 99.247C454.499 93.7123 415.143 76.4164 371.463 66.8459C315.889 54.7387 249.071 49.2039 191.119 56.6988C122.355 65.5775 66.781 63.1561 -0.0369924 46.206C-96.4799 21.6457 -174.759 4.58009 -280.5 26.6037M1486.83 68.4602C1436.23 33.9835 1377.19 -3.83712 1286.37 4.23435C1231.01 9.19254 1184.52 28.3335 1135.22 41.1325C1030.78 68.2296 912.71 47.0132 802.428 45.3989C743.611 44.4764 673.333 44.8224 620.138 60.0429C578.188 72.0348 550.293 87.0246 498.179 81.9511C386.383 70.9969 313.727 15.419 191.335 30.4089C118.462 39.2875 72.1871 29.2558 1.04428 14.2659C-97.3447 -6.60459 -192.058 -0.493368 -291.312 16.3414" stroke="url(#paint0_linear_3191_45225)" stroke-width="1.07198" stroke-miterlimit="10"/>
<defs>
<linearGradient id="paint0_linear_3191_45225" x1="766.959" y1="599.822" x2="796.53" y2="-12.4962" gradientUnits="userSpaceOnUse">
<stop stop-color="#6FD7C9"/>
<stop offset="0.556898" stop-color="#6FD7C9" stop-opacity="0.5"/>
<stop offset="1" stop-color="#6FD7C9" stop-opacity="0"/>
</linearGradient>
</defs>
</svg>
