<svg width="104" height="32" viewBox="0 0 104 32" fill="none" xmlns="http://www.w3.org/2000/svg">
<mask id="path-1-inside-1_3863_37681" fill="white">
<path d="M28.0153 26.5656C25.8718 29.0032 23.0376 30.7312 19.889 31.5202C16.7404 32.3091 13.4262 32.1218 10.3866 30.983C7.34693 29.8442 4.72555 27.8078 2.87045 25.1441C1.01535 22.4805 0.0142835 19.3156 0.000151636 16.0697C-0.0139802 12.8237 0.959492 9.65024 2.79133 6.97055C4.62317 4.29086 7.22672 2.23171 10.2563 1.06647C13.286 -0.0987681 16.5983 -0.314974 19.7537 0.446556C22.9091 1.20809 25.7582 2.91133 27.9229 5.33016L22.971 9.76159C21.7054 8.34736 20.0396 7.35151 18.1947 6.90626C16.3498 6.46101 14.4132 6.58742 12.6418 7.26871C10.8705 7.95 9.34823 9.15394 8.2772 10.7207C7.20616 12.2874 6.637 14.1429 6.64526 16.0407C6.65352 17.9386 7.23882 19.789 8.32346 21.3464C9.40809 22.9037 10.9408 24.0944 12.718 24.7602C14.4952 25.426 16.4329 25.5356 18.2738 25.0743C20.1147 24.613 21.7718 23.6027 23.0251 22.1775L28.0153 26.5656Z"/>
</mask>
<path d="M28.0153 26.5656C25.8718 29.0032 23.0376 30.7312 19.889 31.5202C16.7404 32.3091 13.4262 32.1218 10.3866 30.983C7.34693 29.8442 4.72555 27.8078 2.87045 25.1441C1.01535 22.4805 0.0142835 19.3156 0.000151636 16.0697C-0.0139802 12.8237 0.959492 9.65024 2.79133 6.97055C4.62317 4.29086 7.22672 2.23171 10.2563 1.06647C13.286 -0.0987681 16.5983 -0.314974 19.7537 0.446556C22.9091 1.20809 25.7582 2.91133 27.9229 5.33016L22.971 9.76159C21.7054 8.34736 20.0396 7.35151 18.1947 6.90626C16.3498 6.46101 14.4132 6.58742 12.6418 7.26871C10.8705 7.95 9.34823 9.15394 8.2772 10.7207C7.20616 12.2874 6.637 14.1429 6.64526 16.0407C6.65352 17.9386 7.23882 19.789 8.32346 21.3464C9.40809 22.9037 10.9408 24.0944 12.718 24.7602C14.4952 25.426 16.4329 25.5356 18.2738 25.0743C20.1147 24.613 21.7718 23.6027 23.0251 22.1775L28.0153 26.5656Z" stroke="white" stroke-width="92" mask="url(#path-1-inside-1_3863_37681)"/>
<circle cx="16.0001" cy="16.0003" r="5.07692" fill="#FF3529"/>
<path d="M40.4672 3.50217C40.852 2.83492 41.815 2.83492 42.1998 3.50217L43.2541 5.33042C43.3959 5.57624 43.6354 5.75025 43.913 5.80911L45.9775 6.24687C46.731 6.40664 47.0286 7.32248 46.5129 7.89462L45.1 9.46231C44.91 9.67309 44.8185 9.95465 44.8483 10.2368L45.07 12.3357C45.1508 13.1016 44.3718 13.6677 43.6683 13.354L41.7407 12.4946C41.4815 12.3791 41.1855 12.3791 40.9263 12.4946L38.9987 13.354C38.2952 13.6677 37.5162 13.1016 37.5971 12.3357L37.8187 10.2368C37.8485 9.95465 37.757 9.67309 37.5671 9.46231L36.1541 7.89463C35.6384 7.32248 35.936 6.40664 36.6895 6.24687L38.7541 5.80911C39.0316 5.75025 39.2711 5.57624 39.4129 5.33043L40.4672 3.50217Z" fill="#FF3529"/>
<path d="M54.4672 3.50217C54.852 2.83492 55.815 2.83492 56.1998 3.50217L57.2541 5.33042C57.3959 5.57624 57.6354 5.75025 57.913 5.80911L59.9775 6.24687C60.731 6.40664 61.0286 7.32248 60.5129 7.89462L59.1 9.46231C58.91 9.67309 58.8185 9.95465 58.8483 10.2368L59.07 12.3357C59.1508 13.1016 58.3718 13.6677 57.6683 13.354L55.7407 12.4946C55.4815 12.3791 55.1855 12.3791 54.9263 12.4946L52.9987 13.354C52.2952 13.6677 51.5162 13.1016 51.5971 12.3357L51.8187 10.2368C51.8485 9.95465 51.757 9.67309 51.5671 9.46231L50.1541 7.89463C49.6384 7.32248 49.936 6.40664 50.6895 6.24687L52.7541 5.80911C53.0316 5.75025 53.2711 5.57624 53.4129 5.33043L54.4672 3.50217Z" fill="#FF3529"/>
<path d="M68.4672 3.50217C68.852 2.83492 69.815 2.83492 70.1998 3.50217L71.2541 5.33042C71.3959 5.57624 71.6354 5.75025 71.913 5.80911L73.9775 6.24687C74.731 6.40664 75.0286 7.32248 74.5129 7.89462L73.1 9.46231C72.91 9.67309 72.8185 9.95465 72.8483 10.2368L73.07 12.3357C73.1508 13.1016 72.3718 13.6677 71.6683 13.354L69.7407 12.4946C69.4815 12.3791 69.1855 12.3791 68.9263 12.4946L66.9987 13.354C66.2952 13.6677 65.5162 13.1016 65.5971 12.3357L65.8187 10.2368C65.8485 9.95465 65.757 9.67309 65.5671 9.46231L64.1541 7.89463C63.6384 7.32248 63.936 6.40664 64.6895 6.24687L66.7541 5.80911C67.0316 5.75025 67.2711 5.57624 67.4129 5.33043L68.4672 3.50217Z" fill="#FF3529"/>
<path d="M82.4672 3.50217C82.852 2.83492 83.815 2.83492 84.1998 3.50217L85.2541 5.33042C85.3959 5.57624 85.6354 5.75025 85.913 5.80911L87.9775 6.24687C88.731 6.40664 89.0286 7.32248 88.5129 7.89462L87.1 9.46231C86.91 9.67309 86.8185 9.95465 86.8483 10.2368L87.07 12.3357C87.1508 13.1016 86.3718 13.6677 85.6683 13.354L83.7407 12.4946C83.4815 12.3791 83.1855 12.3791 82.9263 12.4946L80.9987 13.354C80.2952 13.6677 79.5162 13.1016 79.5971 12.3357L79.8187 10.2368C79.8485 9.95465 79.757 9.67309 79.5671 9.46231L78.1541 7.89463C77.6384 7.32248 77.936 6.40664 78.6895 6.24687L80.7541 5.80911C81.0316 5.75025 81.2711 5.57624 81.4129 5.33043L82.4672 3.50217Z" fill="#FF3529"/>
<path d="M96.4672 3.50217C96.852 2.83492 97.815 2.83492 98.1998 3.50217L99.2541 5.33042C99.3959 5.57624 99.6354 5.75025 99.913 5.80911L101.978 6.24687C102.731 6.40664 103.029 7.32248 102.513 7.89462L101.1 9.46231C100.91 9.67309 100.818 9.95465 100.848 10.2368L101.07 12.3357C101.151 13.1016 100.372 13.6677 99.6683 13.354L97.7407 12.4946C97.4815 12.3791 97.1855 12.3791 96.9263 12.4946L94.9987 13.354C94.2952 13.6677 93.5162 13.1016 93.5971 12.3357L93.8187 10.2368C93.8485 9.95465 93.757 9.67309 93.5671 9.46231L92.1541 7.89463C91.6384 7.32248 91.936 6.40664 92.6895 6.24687L94.7541 5.80911C95.0316 5.75025 95.2711 5.57624 95.4129 5.33043L96.4672 3.50217Z" fill="#FF3529"/>
</svg>
