<svg width="329" height="208" viewBox="0 0 329 208" fill="none" xmlns="http://www.w3.org/2000/svg">
<path opacity="0.4" d="M-495.483 571.903C-460.801 514.992 -409.789 468.366 -380.843 407.821C-357.654 359.206 -365.978 304.057 -360.447 251.831C-357.471 223.482 -351.764 195.847 -344.771 168.25C-337.196 138.353 -342.601 115.826 -356.218 87.7295C-372.138 54.8025 -395.47 23.746 -404.222 -12.1874C-414.953 -55.5657 -388.341 -80.9599 -354.211 -100.053C-316.387 -121.205 -271.262 -133.409 -227.283 -143.012C-194.664 -150.179 -163.703 -153.84 -134.789 -171.691C-114.132 -184.508 -93.1502 -202.652 -88.7724 -227.86C-80.431 -274.983 -130.923 -314.079 -162.007 -339.829M-455.02 578.097C-419.063 523.581 -367.178 477.575 -340.728 417.095C-318.896 367.123 -338.364 317.189 -338.324 265.178C-338.358 237.799 -333.811 210.872 -321.566 186.173C-313.389 169.79 -306.408 162.362 -307.73 143.084C-308.688 129.58 -313.72 115.896 -318.368 103.273C-331.607 67.7418 -353.281 33.1797 -358.803 -4.83673C-365.281 -49.3965 -333.202 -69.1143 -298.092 -87.5545C-239.213 -118.571 -167.55 -131.536 -110.598 -169.392C-88.8425 -183.88 -64.5327 -201.718 -54.2221 -226.653C-35.1417 -272.627 -77.5889 -312.574 -108.165 -340.765M-407.604 581.219C-374.39 531.058 -326.711 488.017 -301.766 432.859C-277.562 379.363 -307.973 335.532 -312.27 281.492C-314.402 254.418 -309.437 228.444 -292.988 206.205C-282.746 192.339 -270.381 187.376 -267.602 169.349C-265.222 153.794 -269.174 137.726 -272.957 122.654C-281.119 90.2031 -295.725 58.3843 -298.174 24.6073C-301.351 -20.7165 -266.443 -40.0439 -233.354 -63.4647C-184.913 -97.7797 -135.792 -132.005 -87.51 -166.959C-64.8059 -183.398 -38.6374 -201.142 -24.3277 -226.038C0.633205 -269.63 -34.4872 -309.233 -63.7903 -339.278M-362.741 579.553C-335.414 533.614 -292.713 496.843 -269.041 448.964C-241.194 392.803 -279.798 353.79 -287.699 298.416C-292.307 266.694 -282.56 242.06 -257.968 221.358C-245.775 211.153 -232.345 207.341 -226.182 191.76C-221.362 179.426 -222.635 166.18 -223.757 153.216C-226.727 119.988 -238.766 86.7102 -235.822 53.0428C-232.19 12.8608 -195.422 -9.08521 -170.442 -36.8644C-132.799 -78.7162 -111.958 -126.985 -66.8915 -163.39C-45.1445 -180.947 -19.1076 -198.259 -5.59573 -223.634C15.7406 -263.848 -10.0028 -299.768 -35.9309 -330.435M-329.868 571.166C-308.038 526.62 -260.881 501.94 -240.238 457.032C-215.908 404.282 -263.17 363.103 -271.265 312.624C-276.32 281.592 -263.428 257.09 -237.434 239.53C-206.669 218.704 -183.88 217.861 -182.253 176.125C-180.994 142.18 -190.737 107.95 -184.657 74.0587C-178.004 37.5105 -137.602 12.5429 -121.281 -17.4028C-107.925 -41.8812 -107.338 -72.8456 -95.2806 -99.2536C-84.9144 -122.048 -65.2985 -139.193 -46.8001 -155.38C-27.6725 -172.084 -5.1185 -188.806 7.35521 -211.548C26.2678 -246.13 11.6049 -277.376 -8.71425 -307.868M-303.023 567.077C-268.623 537.803 -222.803 509.768 -211.134 462.951C-198.858 413.37 -240.503 372.723 -248.787 325.962C-254.517 293.662 -241.977 267.991 -214.939 249.333C-185.062 228.708 -158.505 228.66 -153.339 188.474C-149.066 155.093 -157.016 121.174 -152.138 87.7417C-146.592 49.7945 -113.94 24.7071 -100.698 -8.29986C-79.7989 -59.8542 -70.0735 -104.55 -26.2726 -145.705C17.04 -186.419 46.4148 -220.881 19.1021 -281.462M-280.012 589.895C-233.887 561.245 -183.113 524.692 -183.202 464.973C-183.295 416.107 -219.923 380.291 -225.926 333.399C-230.14 300.382 -214.032 274.618 -187.277 256.11C-160.977 237.934 -135.995 234.929 -126.987 201.104C-119.407 172.742 -123.335 141.109 -121.838 112.192C-119.506 67.367 -100.29 40.3088 -84.6523 0.599901C-64.425 -50.6871 -44.5848 -94.8961 -6.14411 -136.269C27.8876 -172.851 52.1334 -210.999 44.1843 -262.731M-259.389 625.199C-199.073 589.076 -136.85 537.018 -153.4 459.308C-162.586 416.282 -197.586 381.317 -202.186 337.565C-209.87 264.443 -121.22 265.03 -99.9819 210.04C-89.0835 181.627 -90.7296 147.151 -90.0397 117.397C-89.6779 101.11 -91.3333 81.3772 -88.5731 65.3489C-85.2487 46.3074 -75.3294 26.916 -68.4006 9.20861C-48.4642 -42.285 -16.9936 -84.0121 13.5114 -129.926C39.6209 -169.158 54.4779 -218.306 64.2083 -264.18M-238.808 657.541C-171.999 617.144 -87.0399 551.251 -117.517 462.337C-131.81 420.587 -171.875 387.145 -176.395 342.356C-183.348 272.642 -97.5406 268.233 -72.1361 216.99C-40.7903 153.991 -76.6797 82.0671 -52.4727 17.7186C-32.1694 -36.1405 9.55768 -80.169 36.0746 -131.191C65.7193 -188.22 94.6415 -245.588 109.212 -308.508M-215.762 672.112C-144.375 627.92 -68.6301 563.231 -91.8586 470.273C-102.655 427.111 -140.246 394.069 -146.01 349.491C-154.396 283.705 -76.8563 271.587 -45.9954 228.376C-28.7384 204.26 -25.7529 173.555 -27.7153 144.763C-30.3312 104.565 -52.1354 65.0082 -34.5544 25.8913C-21.2947 -3.68928 0.0507936 -28.4468 18.7542 -54.5993C35.9126 -78.3912 48.7439 -103.855 63.035 -129.465C95.5715 -187.854 130.59 -242.774 147.269 -308.355M-189.655 671.219C-124.918 625.236 -61.1861 563.965 -75.2121 477.586C-82.6468 431.909 -111.205 392.064 -110.73 344.432C-110.214 284.662 -55.3582 269.171 -23.794 228.299C23.2799 167.496 -30.2325 89.141 -1.06928 25.9488C21.8095 -23.5866 57.657 -72.7097 87.6366 -119.61C121.119 -171.812 159.003 -216.776 175.802 -277.719M-161.931 663.859C-106.338 617.685 -51.9946 560.513 -60.297 482.839C-65.8334 430.544 -84.0593 385.825 -75.3308 331.625C-66.4142 276.42 -29.8752 252.516 2.66972 212.297C47.4936 156.943 14.6233 81.692 38.1489 19.9672C54.4497 -23.0788 83.4999 -70.0262 111.134 -106.906C144.464 -151.251 183.509 -187.249 199.719 -242.002M-133.968 656.099C-90.6732 611.959 -43.1524 562.854 -43.9391 496.906C-44.3286 466.824 -55.937 439.104 -54.9747 408.843C-53.9795 378.475 -47.9994 347.62 -39.9076 318.353C-25.5566 266.219 0.233286 228.423 34.1959 187.81C75.3943 138.548 61.9678 71.1083 78.1278 13.0376C88.9309 -25.9031 108.704 -64.4703 134.088 -95.9011C167.948 -137.726 207.954 -171.072 222.948 -224.543M-107.509 653.662C-74.2569 604.928 -25.2662 568.421 -24.4295 504.502C-24.0584 473.472 -35.5116 444.855 -32.0378 413.709C-28.1171 379.159 -15.8745 344.786 -4.62277 312.116C11.4351 265.221 26.9229 210.131 60.0633 172.216C100.035 126.591 106.066 68.855 114.327 10.3828C119.798 -27.7052 133.081 -57.7504 158.361 -87.6792C193.408 -129.142 232.606 -160.611 242.997 -216.783M-83.4737 659.57C-42.3884 611.453 -2.55626 578.29 -2.40349 510.034C-2.3326 478.44 -11.1715 450.148 -5.20994 418.58C1.3158 383.998 14.1497 350.395 26.4295 317.449C37.8119 287.06 50.7385 257.024 59.5631 225.738C65.808 203.694 67.6912 185.511 82.3179 167.318C117.69 123.24 139.804 73.1181 141.877 15.5922C145.239 -77.5214 252.79 -116.122 259.761 -209.08M-60.4762 665.397C-6.15646 623.79 22.042 583.897 19.2617 514.039C18.0372 482.051 12.9671 454.554 20.5715 423.014C28.6599 389.498 41.5637 357.214 53.3974 324.958C64.6955 294.072 78.2141 262.093 83.932 229.388C87.5668 208.554 86.1551 189.957 98.8573 171.885C111.386 153.997 127.687 141.15 138.385 121.524C153.78 93.0663 165.292 55.2852 166.639 23.3728C170.634 -68.722 279.673 -106.398 276.102 -201.151M-37.9619 670.488C-5.25924 651.432 28.2328 629.785 39.9509 591.713C48.2063 564.619 42.7331 535.347 40.1273 507.892C33.9467 444.548 58.6242 391.432 79.436 332.42C89.7432 303.237 101.689 272.548 104.59 241.345C106.822 217.37 100.793 196.894 114.73 175.542C128.255 154.772 149.114 140.129 162.338 118.795C178.131 93.2898 189.988 60.5687 191.467 30.9375C196.152 -60.7112 307.804 -98.0621 295.18 -193.687M-15.3303 675.968C22.3379 658.425 64.2597 636.988 71.4365 591.751C76.0361 562.717 65.0332 534.946 61.2965 506.557C53.8981 449.92 88.2368 392.197 105.69 339.947C115.162 311.572 126.747 279.357 125.775 248.862C124.952 224.074 116.129 204.634 129.199 181.484C141.452 159.854 163.63 145.142 179.233 126.066C199.02 101.778 214.365 70.0013 216.163 38.9339C218.31 2.07453 229.03 -24.9769 255.061 -53.4974C292.722 -94.6357 320.604 -128.844 316.07 -187.912M8.07541 682.391C48.0475 666.966 92.4328 648.285 98.6904 600.645C102.469 571.597 91.6208 542.929 87.1377 514.666C77.6563 454.799 115.476 401.912 133.761 347.32C143.571 318.222 153.936 283.041 147.779 252.145C142.933 227.783 133.143 209.582 145.819 185.014C173.078 132.331 236.159 111.914 240.742 46.5408C243.514 7.6305 259.943 -12.6084 284.797 -43.847C319.3 -87.0093 327.985 -136.033 327.322 -190.382" stroke="url(#paint0_linear_3191_46297)" stroke-width="1.51976" stroke-miterlimit="10"/>
<defs>
<linearGradient id="paint0_linear_3191_46297" x1="-379.874" y1="171.471" x2="174.292" y2="396.725" gradientUnits="userSpaceOnUse">
<stop stop-color="#6FD7C9"/>
<stop offset="0.556898" stop-color="#6FD7C9" stop-opacity="0.5"/>
<stop offset="1" stop-color="#6FD7C9" stop-opacity="0"/>
</linearGradient>
</defs>
</svg>
