<svg width="230" height="376" viewBox="0 0 230 376" fill="none" xmlns="http://www.w3.org/2000/svg">
<path opacity="0.4" d="M-253.272 383.287C-232.976 349.982 -203.123 322.696 -186.183 287.264C-172.613 258.814 -177.484 226.539 -174.246 195.976C-172.505 179.385 -169.166 163.213 -165.073 147.062C-160.64 129.566 -163.803 116.383 -171.772 99.9407C-181.089 80.6712 -194.743 62.4964 -199.865 41.4676C-206.145 16.0818 -190.571 1.22066 -170.597 -9.95284C-148.462 -22.3315 -122.054 -29.4733 -96.3171 -35.0936C-77.2278 -39.2876 -59.1088 -41.43 -42.1876 -51.8765C-30.099 -59.3772 -17.8199 -69.9955 -15.258 -84.7481C-10.3764 -112.325 -39.9255 -135.205 -58.1161 -150.274M-229.592 386.912C-208.55 355.009 -178.186 328.085 -162.707 292.691C-149.93 263.446 -161.323 234.224 -161.3 203.786C-161.32 187.764 -158.659 172.006 -151.493 157.552C-146.708 147.964 -142.622 143.617 -143.396 132.335C-143.956 124.432 -146.901 116.424 -149.621 109.037C-157.369 88.2435 -170.053 68.0172 -173.285 45.7693C-177.076 19.6921 -158.303 8.15292 -137.755 -2.63858C-103.299 -20.7901 -61.3598 -28.3776 -28.0306 -50.5316C-15.299 -59.01 -1.07246 -69.4491 4.96147 -84.0413C16.1277 -110.946 -8.71319 -134.324 -26.6066 -150.822M-201.844 388.739C-182.406 359.384 -154.504 334.196 -139.905 301.917C-125.741 270.61 -143.538 244.959 -146.053 213.334C-147.3 197.49 -144.395 182.289 -134.768 169.275C-128.775 161.16 -121.539 158.256 -119.912 147.706C-118.519 138.603 -120.832 129.2 -123.046 120.379C-127.822 101.388 -136.37 82.7674 -137.803 63.0005C-139.663 36.4762 -119.234 25.1655 -99.8696 11.4592C-71.5211 -8.62254 -42.7744 -28.652 -14.5192 -49.1073C-1.23238 -58.7282 14.0819 -69.1121 22.4562 -83.6816C37.0638 -109.193 16.5107 -132.369 -0.638011 -149.951M-175.589 387.764C-159.597 360.88 -134.607 339.361 -120.754 311.342C-104.458 278.475 -127.049 255.644 -131.673 223.238C-134.37 204.674 -128.666 190.257 -114.274 178.143C-107.139 172.171 -99.2791 169.94 -95.6724 160.821C-92.8518 153.603 -93.5966 145.852 -94.2534 138.264C-95.9916 118.819 -103.037 99.3442 -101.314 79.6414C-99.1886 56.1262 -77.6711 43.283 -63.0527 27.0261C-41.0234 2.53374 -28.8267 -25.714 -2.45287 -47.0187C10.2738 -57.2935 25.5111 -67.4247 33.4185 -82.2745C45.9048 -105.809 30.8394 -126.829 15.6658 -144.777M-156.351 382.856C-143.576 356.787 -115.979 342.344 -103.898 316.063C-89.6599 285.193 -117.319 261.094 -122.056 231.553C-125.014 213.393 -117.47 199.054 -102.257 188.777C-84.2531 176.589 -70.9169 176.096 -69.9643 151.671C-69.2275 131.806 -74.9292 111.774 -71.3713 91.9403C-67.4778 70.5517 -43.8337 55.9402 -34.2828 38.4154C-26.4663 24.0902 -26.1228 5.96931 -19.0667 -9.4851C-13.0002 -22.8247 -1.52066 -32.8582 9.30495 -42.3315C20.4987 -52.1069 33.6978 -61.8926 40.9976 -75.2016C52.0656 -95.4398 43.4846 -113.726 31.5935 -131.57M-140.641 380.463C-120.51 363.332 -93.6951 346.925 -86.8661 319.527C-79.6822 290.511 -104.053 266.724 -108.901 239.358C-112.255 220.456 -104.916 205.433 -89.0932 194.514C-71.6084 182.444 -56.0666 182.416 -53.0432 158.898C-50.5429 139.363 -55.1954 119.513 -52.3408 99.9478C-49.0953 77.7404 -29.9862 63.0589 -22.2368 43.7426C-10.0065 13.5721 -4.31505 -12.5845 21.318 -36.6693C46.6653 -60.4959 63.856 -80.6635 47.8721 -116.117M-127.175 393.817C-100.182 377.05 -70.4676 355.659 -70.5199 320.71C-70.5741 292.113 -92.0096 271.153 -95.5225 243.711C-97.9886 224.389 -88.5622 209.311 -72.9044 198.48C-57.5131 187.843 -42.8938 186.084 -37.6218 166.289C-33.1859 149.691 -35.4848 131.179 -34.6087 114.256C-33.2436 88.0242 -21.9984 72.1893 -12.8468 48.9509C-1.00945 18.9369 10.6014 -6.93502 33.0976 -31.1471C53.0135 -52.5554 67.2026 -74.8803 62.5506 -105.155M-115.106 414.477C-79.8077 393.337 -43.394 362.872 -53.079 317.395C-58.4549 292.215 -78.9374 271.753 -81.6296 246.149C-86.1266 203.357 -34.2466 203.7 -21.818 171.519C-15.44 154.891 -16.4034 134.715 -15.9996 117.303C-15.7879 107.771 -16.7567 96.2232 -15.1413 86.8432C-13.1958 75.6998 -7.39089 64.3515 -3.33602 53.9889C8.3311 23.8539 26.7482 -0.565552 44.6003 -27.4353C59.88 -50.3943 68.5746 -79.1567 74.269 -106.003M-103.062 433.404C-63.9635 409.763 -14.2441 371.202 -32.0797 319.168C-40.4445 294.735 -63.8912 275.164 -66.5364 248.953C-70.6055 208.155 -20.3893 205.575 -5.52211 175.586C12.822 138.718 -8.1811 96.6269 5.98527 58.9691C17.8671 27.4498 42.2865 1.68355 57.8047 -28.1755C75.1533 -61.55 92.079 -95.1224 100.606 -131.944M-89.5743 441.932C-47.7974 416.069 -3.47036 378.212 -17.0641 323.812C-23.3822 298.552 -45.3813 279.216 -48.7545 253.128C-53.6621 214.629 -8.28446 207.537 9.77585 182.25C19.875 168.137 21.6221 150.167 20.4737 133.318C18.9428 109.793 6.18266 86.6438 16.4713 63.7519C24.2312 46.4408 36.7229 31.9522 47.6685 16.6474C57.7099 2.72392 65.219 -12.1782 73.5824 -27.1653C92.6233 -61.3358 113.117 -93.476 122.877 -131.855M-74.2961 441.409C-36.4111 414.499 0.886029 378.642 -7.32228 328.092C-11.6732 301.361 -28.3861 278.043 -28.1082 250.168C-27.8061 215.189 4.29662 206.124 22.7685 182.204C50.317 146.622 19.0006 100.767 36.0674 63.7855C49.4565 34.7965 70.4351 6.04884 87.9797 -21.3978C107.574 -51.9479 129.744 -78.2614 139.575 -113.926M-58.0718 437.102C-25.5377 410.08 6.26504 376.622 1.40632 331.166C-1.83366 300.562 -12.4998 274.392 -7.39172 242.672C-2.17356 210.365 19.2097 196.377 38.2556 172.84C64.4873 140.446 45.251 96.4074 59.0186 60.285C68.5581 35.0937 85.5588 7.6193 101.731 -13.9633C121.236 -39.915 144.086 -60.9818 153.572 -93.0238M-41.7073 432.561C-16.3703 406.729 11.4397 377.992 10.9793 339.398C10.7513 321.793 3.95789 305.571 4.52105 287.862C5.10344 270.09 8.60309 252.033 13.3385 234.905C21.737 204.396 36.8297 182.277 56.7052 158.509C80.8152 129.68 72.9578 90.2137 82.4149 56.2296C88.7371 33.4409 100.308 10.8707 115.164 -7.52316C134.979 -31.9998 158.391 -51.5144 167.166 -82.8067M-26.2227 431.135C-6.76327 402.614 21.907 381.25 22.3966 343.843C22.6138 325.684 15.9112 308.937 17.9441 290.709C20.2385 270.49 27.4031 250.375 33.9879 231.256C43.3852 203.812 52.449 171.572 71.8433 149.384C95.2357 122.683 98.7651 88.895 103.599 54.6761C106.801 32.3862 114.574 14.8033 129.369 -2.71159C149.879 -26.9765 172.819 -45.3926 178.899 -78.2652M-12.1571 434.592C11.8868 406.433 35.1972 387.025 35.2866 347.08C35.3281 328.591 30.1554 312.034 33.6442 293.56C37.4632 273.322 44.9738 253.657 52.1602 234.376C58.8214 216.593 66.3862 199.015 71.5506 180.706C75.2052 167.805 76.3073 157.164 84.8671 146.517C105.567 120.722 118.509 91.3899 119.722 57.7247C121.69 3.23295 184.63 -19.3568 188.71 -73.7572M1.30148 438.002C33.0903 413.653 49.5926 390.307 47.9655 349.425C47.2489 330.705 44.2818 314.613 48.732 296.155C53.4655 276.541 61.017 257.648 67.9423 238.771C74.5541 220.696 82.4655 201.981 85.8117 182.842C87.9388 170.649 87.1127 159.766 94.5462 149.19C101.878 138.721 111.418 131.203 117.679 119.718C126.688 103.064 133.425 80.9537 134.213 62.278C136.551 8.38252 200.363 -13.6659 198.273 -69.1176M14.4772 440.981C33.6154 429.829 53.2155 417.161 60.0732 394.881C64.9044 379.025 61.7014 361.894 60.1764 345.827C56.5594 308.757 71.0011 277.673 83.1805 243.138C89.2125 226.059 96.2034 208.1 97.9012 189.839C99.2076 175.809 95.6789 163.826 103.835 151.33C111.75 139.175 123.957 130.606 131.696 118.121C140.939 103.195 147.878 84.0457 148.743 66.705C151.485 13.0706 216.826 -8.78785 209.438 -64.7493M27.7216 444.188C49.7657 433.922 74.2991 421.376 78.4991 394.903C81.1909 377.912 74.7518 361.659 72.565 345.046C68.2353 311.901 88.3309 278.121 98.5451 247.543C104.088 230.937 110.868 212.085 110.299 194.238C109.817 179.732 104.654 168.355 112.303 154.808C119.473 142.15 132.452 133.539 141.584 122.376C153.163 108.162 162.143 89.5658 163.196 71.3846C164.452 49.8139 170.725 33.9829 185.959 17.2922C207.999 -6.78264 224.317 -26.8022 221.663 -61.3696M41.4191 447.947C64.8115 438.92 90.7865 427.988 94.4486 400.108C96.6596 383.108 90.3113 366.331 87.6877 349.792C82.139 314.756 104.272 283.806 114.973 251.858C120.714 234.829 126.78 214.24 123.176 196.159C120.34 181.902 114.611 171.251 122.029 156.873C137.981 126.042 174.898 114.094 177.579 75.8364C179.202 53.0653 188.817 41.2212 203.362 22.9398C223.553 -2.31953 228.636 -31.009 228.248 -62.8151" stroke="url(#paint0_linear_3205_47304)" stroke-width="1.51976" stroke-miterlimit="10"/>
<defs>
<linearGradient id="paint0_linear_3205_47304" x1="-185.616" y1="148.948" x2="138.692" y2="280.771" gradientUnits="userSpaceOnUse">
<stop stop-color="#6FD7C9"/>
<stop offset="0.556898" stop-color="#6FD7C9" stop-opacity="0.5"/>
<stop offset="1" stop-color="#6FD7C9" stop-opacity="0"/>
</linearGradient>
</defs>
</svg>
