<svg width="194" height="419" viewBox="0 0 194 419" fill="none" xmlns="http://www.w3.org/2000/svg">
<path opacity="0.4" d="M229.236 603.175C240.671 569.263 242.237 532.184 257.147 499.375C269.137 473.054 294.695 457.438 314.266 437.132C324.899 426.121 334.296 414.233 343.232 401.829C352.914 388.392 364.046 382.838 380.303 378.739C399.343 373.919 420.172 372.794 437.973 363.988C459.52 353.426 460.777 333.713 456.848 313.084C452.49 290.223 441.93 267.45 430.697 246.045C422.383 230.154 413.2 216.156 410.56 198.1C408.7 185.179 408.92 170.285 417.777 159.781C434.279 140.082 467.792 147.352 489.114 151.247M212.719 588.671C222.728 555.06 223.738 517.836 239.483 486.077C252.5 459.845 279.76 450.614 301.139 432.641C312.412 423.203 321.917 412.036 327.849 398.473C331.765 389.453 332.41 384.017 340.795 377.906C346.68 373.637 354.046 370.983 360.843 368.537C380.028 361.715 401.726 358.698 419.269 347.845C439.834 335.125 436.869 315.124 432.332 294.316C424.763 259.39 405.354 225.438 401.263 188.944C399.711 174.994 398.656 158.836 405.352 145.987C417.674 122.267 448.76 125.935 470.911 128.778M195.065 570.246C204.23 539.267 205.473 504.797 219.548 475.494C233.196 447.07 261.723 444.446 285.434 427.557C297.306 419.086 306.275 408.077 309.743 393.634C311.911 384.634 309.683 377.835 316.138 370.468C321.715 364.119 329.688 360.197 337.194 356.55C353.359 348.703 371.489 343.726 386.227 333.072C405.966 318.732 401.864 297.701 400.074 276.005C397.464 244.234 394.583 212.214 392.291 180.287C391.215 165.273 389.479 148.384 394.778 133.903C404.091 108.587 432.505 109.36 454.979 111.04M180.262 551.218C189.723 524.118 190.105 493.86 201.626 467.594C215.112 436.751 244.486 439.161 269.99 423.293C284.628 414.237 291.396 401.723 291.42 384.461C291.408 375.923 288.339 369.083 292.621 361.169C296.03 354.928 301.917 350.879 307.637 346.864C322.33 336.614 340.173 330.077 353.005 317.243C368.278 301.877 364.611 279.177 367.413 259.312C371.632 229.38 384.29 204.144 383.705 173.039C383.419 158.033 381.55 141.347 387.323 127.029C396.497 104.369 420.159 102.557 441.724 102.634M172.363 534.802C183.148 510.443 177.019 482.527 188.363 458.532C201.66 430.314 234.915 435.537 258.472 421.439C272.981 412.805 278.608 399.043 276.857 382.289C274.802 362.445 267.281 352.781 283.885 337.702C297.413 325.465 314.856 317.655 326.697 303.454C339.432 288.099 335.754 262.862 342.436 245.811C347.893 231.866 360.427 220.934 367.126 206.858C372.923 194.725 373.203 180.737 373.474 167.54C373.741 153.906 372.833 138.856 377.88 125.874C385.575 106.156 403.489 101.4 423.046 99.2302M164.777 522.348C164.941 498.093 160.654 469.567 175.881 448.605C192.036 426.439 223.132 429.535 245.226 416.798C260.489 408.004 266.719 393.983 265.059 376.421C263.227 357.011 254.078 346.072 268.824 330.073C281.079 316.791 297.775 308.351 309.842 294.802C323.535 279.42 322.581 257.329 331.586 240.487C345.576 214.092 360.602 194.662 362.408 162.437C364.201 130.566 368.234 106.586 402.582 96.9054M147.447 520.762C143.307 491.898 140.812 458.395 165.406 437.814C185.538 420.982 212.914 423.683 234.274 409.962C249.31 400.297 254.345 384.777 252.721 367.382C251.117 350.29 243.729 338.977 254.532 323.594C263.58 310.685 277.947 301.38 289.325 290.781C306.956 274.346 311.452 257.101 322.386 236.96C336.497 210.934 347.832 187.511 351.578 157.416C354.875 130.789 362.195 107.646 386.218 93.0556M125.806 524.467C119.84 487.187 119.771 443.622 157.447 423.6C178.316 412.525 204.781 414.849 224.365 401.636C257.094 379.553 226.247 343.292 241.533 315.572C249.457 301.28 264.206 290.055 276.205 279.499C282.78 273.727 291.468 267.595 297.107 260.926C303.792 252.985 308.343 242.21 313.234 233.247C327.531 207.27 333.829 179.92 342.183 151.521C349.305 127.238 364.391 104.159 379.901 84.3192M105.398 527.168C98.9487 485.741 96.72 428.048 143.813 409.887C165.921 401.352 193.507 406.286 213.49 392.682C244.565 371.474 216.754 334.658 229.06 306.518C244.151 271.875 286.125 261.806 304.235 229.634C319.378 202.689 323.082 170.325 334.913 141.804C348.136 109.922 361.747 78.2204 382.596 50.5051M91.4479 522.719C84.9795 478.1 85.4369 424.612 131.691 402.073C153.172 391.612 179.74 395.667 200.066 382.648C230.019 363.385 208.234 327.308 215.353 299.697C219.314 284.273 230.913 272.444 243.433 263.311C260.87 250.509 284.668 245.821 294.687 225.085C302.276 209.419 305.09 192.092 309.39 175.37C313.252 160.099 319.296 146.03 324.896 131.311C337.679 97.7697 348.179 64.4056 369.395 34.9045M82.8021 511.673C79.366 469.17 82.5648 421.803 122.936 397.751C144.29 385.04 170.538 383.03 189.966 366.39C214.372 345.543 201.805 317.632 207.72 290.538C216.477 250.185 267.18 245.144 283.103 211.332C295.579 184.821 303.408 153.117 312.349 124.594C322.261 92.7998 327.676 61.6947 346.943 33.7451M76.2583 497.728C76.0573 458.921 80.8113 416.831 115.626 393.43C139.047 377.653 163.733 369.711 183.013 347.408C202.641 324.682 199.858 301.401 205.165 274.129C212.458 236.582 254.758 224.123 272.024 193.136C284.102 171.571 293.382 143.414 299.011 119.315C305.744 90.2962 307.071 61.8088 323.995 36.2386M69.7959 483.548C73.0045 450.501 76.7961 414.002 104.193 391.558C116.7 381.333 132.11 376.537 144.224 365.694C156.371 354.801 166.998 341.689 176.242 328.256C192.731 304.355 199.373 280.699 204.353 252.708C210.392 218.755 242.766 200.995 261.072 174.3C273.359 156.413 282.396 134.965 286.56 113.673C292.074 85.3067 291.978 57.3394 308.794 32.7117M61.6636 471.823C70.2288 441.322 68.331 408.568 94.333 386.156C106.968 375.29 122.692 370.122 134.304 357.94C147.161 344.399 157.073 327.497 166.626 311.59C180.37 288.795 197.683 263.406 201.836 236.685C206.803 204.492 228.468 182.079 249.667 158.495C263.444 143.095 271.216 127.259 274.798 106.528C279.753 77.7977 279.164 50.8108 298.681 27.1444M50.9359 463.977C56.5427 430.466 56.4315 402.634 84.4536 379.006C97.424 368.07 112.112 361.938 123.039 348.587C135.01 333.964 144.4 317.084 153.712 300.659C162.281 285.486 170.173 269.799 179.995 255.369C186.906 245.189 193.735 238.137 196.168 225.84C202.086 196.074 215.067 169.674 238.012 148.961C275.151 115.432 253.897 57.8685 289.725 22.9086M40.5994 456.53C38.9597 419.823 45.6329 394.452 75.3262 371.478C88.9062 360.938 101.967 353.53 112.314 339.514C123.307 324.616 132.131 308.163 141.313 292.159C150.116 276.849 158.603 260.248 170.08 246.606C177.395 237.918 185.531 232.078 188.579 220.614C191.612 209.285 191.268 198.146 195.647 186.969C202.037 170.812 213.603 153.034 226.263 141.462C262.764 108.024 240.616 50.1685 280.822 18.9244M30.7328 449.027C27.2805 428.997 24.6212 407.748 36.2352 389.784C44.5294 377.035 58.4589 369.18 70.651 360.773C98.839 341.447 112.167 312.959 129.254 284.025C137.699 269.711 146.198 254.202 158.03 242.237C167.121 233.041 177.625 228.452 181.595 215.348C185.469 202.614 184.29 188.98 188.5 176.175C193.538 160.874 202.903 144.7 214.58 133.862C250.659 100.294 227.475 41.4753 271.166 13.6544M20.6655 441.61C14.8766 420.06 9.22102 395.416 25.3495 376.847C35.7037 364.931 50.9251 359.869 63.8919 351.605C89.7417 335.095 101.629 301.043 117.094 275.825C125.495 262.133 134.746 246.246 147.625 236.118C158.104 227.899 169.146 224.816 174.156 211.448C178.822 198.941 177.217 184.739 179.676 171.736C182.835 155.212 190.608 137.93 202.765 126.465C217.185 112.857 224.611 99.1082 227.355 78.5549C231.273 48.8618 235.718 25.5832 261.578 7.05588M9.94283 434.201C2.4875 412.434 -5.15215 387.728 12.2823 368.708C22.9259 357.125 38.4625 351.689 51.635 343.776C79.5325 327.007 88.2285 293.193 104.37 266.825C112.952 252.744 123.844 236.335 138.678 228.201C150.371 221.783 161.237 219.527 166.966 205.831C179.225 176.431 165.844 143.436 191.151 118.982C206.198 104.408 208.851 90.663 213.119 69.6556C218.96 40.5627 236.126 20.0657 258.71 1.57516" stroke="url(#paint0_linear_3191_49772)" stroke-width="1.51976" stroke-miterlimit="10"/>
<defs>
<linearGradient id="paint0_linear_3191_49772" x1="354.026" y1="417.38" x2="70.0567" y2="267.211" gradientUnits="userSpaceOnUse">
<stop stop-color="#6FD7C9"/>
<stop offset="0.556898" stop-color="#6FD7C9" stop-opacity="0.5"/>
<stop offset="1" stop-color="#6FD7C9" stop-opacity="0"/>
</linearGradient>
</defs>
</svg>
