<svg width="356" height="508" viewBox="0 0 356 508" fill="none" xmlns="http://www.w3.org/2000/svg">
<path opacity="0.4" d="M502.027 834.479C508.807 768.18 496.362 700.2 509.908 634.472C520.829 581.729 560.801 542.831 587.969 497.887C602.738 473.506 614.899 448.043 626.013 421.833C638.054 393.439 655.978 378.762 683.811 364.615C716.399 348.011 753.76 337.379 782.456 314.048C817.228 285.982 811.383 249.665 795.74 213.823C778.399 174.107 749.833 137.105 720.608 102.867C698.957 77.4377 676.509 55.8034 664.269 24.1037C655.563 1.40606 649.819 -25.7318 661.573 -48.4586C683.417 -91.0373 747.273 -91.653 787.601 -93.3723M466.051 814.951C470.368 749.787 456.853 681.773 472.349 617.607C485.17 564.602 530.865 536.597 562.278 495.144C578.857 473.355 591.514 449.158 596.694 422.081C600.085 404.087 599.014 393.949 611.722 379.393C620.65 369.215 632.931 361.358 644.264 354.113C676.291 333.814 714.451 319.387 741.833 292.444C773.932 260.866 760.301 225.766 743.482 189.851C715.334 129.548 666.088 75.8948 643.61 11.3092C635.039 -13.3835 626.46 -42.2894 633.322 -68.3846C645.917 -116.541 703.88 -122.699 745.279 -126.669M426.395 788.772C430.263 728.735 418.306 665.626 431.782 606.608C444.845 549.363 495.568 532.835 531.661 492.387C549.728 472.11 561.476 448.419 561.818 420.76C562.044 403.523 555.194 392.095 563.879 376.054C571.387 362.225 584.249 351.816 596.375 342.096C622.495 321.182 653.367 304.668 675.738 279.243C705.67 245.061 689.548 208.561 677.351 169.901C659.511 113.281 641.075 56.3213 623.748 -0.710337C615.602 -27.5317 605.485 -57.4862 609.137 -85.9682C615.609 -135.782 667.527 -146.095 709.033 -152.312M391.666 760.321C397.671 707.208 385.889 652.101 395.979 599.653C407.751 538.082 462.086 530.345 501.857 491.013C524.707 468.531 531.836 443.015 524.762 411.658C521.219 396.158 512.826 385.002 517.337 368.865C520.954 356.127 529.976 346.345 538.708 336.696C561.163 312.024 590.871 292.795 608.88 264.197C630.28 229.994 614.26 190.284 611.157 153.055C606.475 96.9601 619.055 45.9114 605.166 -10.3328C598.458 -37.4656 588.185 -66.9965 592.763 -95.3778C600.08 -140.31 642.302 -153.358 681.495 -162.111M370.551 733.767C380.093 685.085 357.451 636.918 368.158 588.666C380.669 531.938 443.211 527.711 480.178 492.395C502.965 470.733 507.509 443.422 497.419 413.718C485.505 378.53 467.862 364.082 491.798 329.852C511.317 302.052 539.772 280.677 555.419 250.005C572.215 216.87 555.127 172.556 560.232 138.836C564.391 111.263 582.644 86.2429 589.005 57.9182C594.529 33.4942 589.269 7.97828 584.32 -16.0996C579.183 -40.969 571.327 -67.924 575.14 -93.5804C580.982 -132.561 611.553 -148.585 646.173 -160.59M351.64 714.28C341.936 670.165 322.388 620.132 341.397 575.785C361.594 528.87 419.339 521.669 454.209 489.429C478.301 467.165 483.831 439.136 473.575 407.927C462.245 373.436 441.12 357.342 461.3 322.208C478.078 293.036 504.917 270.823 521.244 241.244C539.768 207.664 528.925 167.94 538.332 133.642C552.854 79.9421 572.128 38.46 562.12 -20.8029C552.234 -79.4193 549.669 -124.629 608.051 -156.373M319.515 718.545C300.095 667.837 281.75 608.024 317.925 560.509C347.542 521.64 398.371 515.256 431.502 481.533C454.82 457.78 457.566 427.52 447.443 396.602C437.482 366.224 419.4 348.727 432.674 316.337C443.783 289.163 466.036 266.341 482.327 242.401C507.568 205.286 508.62 172.116 520.171 131.031C535.065 77.9496 545.989 30.74 540.382 -25.4556C535.39 -75.1695 539.14 -120.215 576.747 -156.616M281.745 734.198C255.538 668.958 237.447 589.874 297.611 537.979C330.94 509.26 379.958 502.568 410.074 470.499C460.402 416.899 389.432 363.771 405.761 307.129C414.257 277.908 436.411 251.441 453.85 227.324C463.408 214.131 476.657 199.414 484.149 184.978C493.012 167.8 496.835 146.357 502.021 128.063C517.272 74.9929 517.431 22.7288 520.89 -32.2865C523.811 -79.3216 541.69 -127.453 561.673 -169.876M245.798 747.517C217.003 674.947 189.166 571.097 267.197 518.698C303.824 494.083 355.955 491.667 386.634 458.723C434.319 407.396 368.634 352.007 379.378 295.831C392.497 226.698 464.568 191.104 484.189 125.212C500.578 70.036 493.958 9.73805 503.682 -46.9351C514.547 -110.284 526.191 -173.466 552.625 -232.393M218.63 745.191C188.485 666.831 167.259 569.509 241.961 509.507C276.655 481.653 326.575 478.06 358.117 446.036C404.569 398.704 350.131 342.173 351.672 289.096C352.506 259.454 368.691 233.19 387.661 211.442C414.047 181.004 455.33 162.677 464.975 120.889C472.296 89.3105 470.261 56.685 471.174 24.5457C471.89 -4.77925 477.064 -32.8203 481.163 -61.8594C490.547 -128.04 495.856 -192.958 522.218 -255.28M198.375 728.696C174.609 652.93 160.885 565.594 224.28 505.269C257.817 473.379 304.654 458.906 333.073 420.678C368.797 372.756 334.466 327.252 334.034 275.612C333.297 198.721 423.293 168.658 438.267 100.691C449.991 47.4018 451.135 -13.3996 455.609 -68.8826C460.498 -130.708 457.506 -189.426 480.969 -248.127M180.741 706.072C164.374 635.682 155.651 557.288 209.224 500.435C245.25 462.127 286.803 437.525 312.618 389.074C338.891 339.71 324.237 298.579 322.629 246.866C320.389 175.675 392.067 135.606 410.644 72.2164C423.684 28.073 428.927 -26.8859 429.211 -72.9692C429.472 -128.443 420.134 -180.723 440.323 -234.136M163.158 682.986C155.358 621.651 147.193 553.806 187.689 501.751C206.186 478.025 232.192 462.962 249.72 438.276C267.287 413.485 281.177 385.292 292.426 357.087C312.513 306.883 314.82 261.185 312.321 208.302C309.286 144.154 360.753 98.5528 382.989 42.5266C397.926 4.97705 405.492 -37.6977 404.274 -78.0805C402.589 -131.867 390.882 -182.615 411.266 -234.273M143.556 665.048C146.532 606.126 129.579 547.428 167.556 496.007C186.021 471.065 212.445 455.195 228.508 428.285C246.272 398.394 257.301 363.612 268.09 330.787C283.65 283.724 304.619 230.479 301.144 180.242C296.887 119.733 326.989 70.0973 355.759 18.5271C374.428 -15.1195 382.012 -47.0827 379.969 -86.2064C377.119 -140.422 364.921 -189.187 390.604 -240.212M120.839 655.223C117.202 592.056 105.523 541.559 146.667 487.097C165.711 461.888 189.856 444.696 204.193 415.946C219.902 384.454 229.994 349.929 240.131 316.261C249.437 285.174 257.299 253.433 269.184 223.178C277.537 201.842 287.03 186.22 286.378 162.886C284.85 106.391 297.538 53.0966 330.664 6.02035C384.28 -70.1819 321.947 -165.951 372.593 -244.211M98.9971 645.961C80.883 579.979 82.5394 531.154 126.988 477.189C147.303 452.449 167.965 433.611 180.976 403.891C194.796 372.304 204.035 338.787 214.11 305.939C223.783 274.506 232.349 240.86 247.566 211.352C257.267 192.559 269.634 178.599 270.442 156.525C271.277 134.701 266.059 114.613 269.403 92.5123C274.345 60.5366 288.016 23.4825 306.236 -2.75218C358.732 -78.5258 294.654 -174.458 354.784 -247.775M77.9858 636.404C63.457 601.454 49.8656 563.964 63.5487 526.553C73.3533 499.98 95.4099 479.972 114.084 459.678C157.303 412.958 169.758 355.729 188.858 296.14C198.291 266.663 207.328 234.996 223.882 208.387C236.598 187.94 253.781 175.275 255.587 149.841C257.371 125.12 249.609 100.846 251.973 75.8572C254.813 45.9927 265.15 12.7601 281.886 -11.7365C333.563 -87.5718 267.207 -184.826 335.075 -253.364M56.6455 627.087C37.2467 590.34 16.8141 547.92 38.4458 507.548C52.3351 481.64 77.8894 466.17 98.029 445.816C138.163 405.175 145.708 338.435 163.394 286.264C173.004 257.935 183.252 225.271 202.463 201.567C218.104 182.319 236.885 172.169 240.47 145.827C243.786 121.19 235.015 96.0624 234.119 71.4347C233.042 40.1249 240.03 5.53634 257.38 -20.2975C277.954 -50.956 285.77 -78.9846 282.277 -117.44C277.149 -172.978 275.621 -217.084 314.943 -261.393M34.1181 618.053C11.6038 581.601 -12.4572 539.886 11.3597 498.155C25.912 472.733 51.8847 456.455 72.5423 436.653C116.289 394.698 118.137 329.706 136.576 275.166C146.354 246.057 159.367 211.767 182.951 190.879C201.539 174.403 220.341 165.824 225.097 138.591C235.235 80.146 197.331 25.746 233.203 -29.0977C254.519 -61.7677 253.668 -87.822 252.756 -127.731C251.367 -182.972 274.087 -227.272 307.474 -270.163" stroke="url(#paint0_linear_3191_45337)" stroke-width="1.51976" stroke-miterlimit="10"/>
<defs>
<linearGradient id="paint0_linear_3191_45337" x1="652.027" y1="445.621" x2="74.423" y2="290.016" gradientUnits="userSpaceOnUse">
<stop stop-color="#6FD7C9"/>
<stop offset="0.556898" stop-color="#6FD7C9" stop-opacity="0.5"/>
<stop offset="1" stop-color="#6FD7C9" stop-opacity="0"/>
</linearGradient>
</defs>
</svg>
