<svg width="411" height="608" viewBox="0 0 411 608" fill="none" xmlns="http://www.w3.org/2000/svg">
<path opacity="0.4" d="M396.013 -394.927C412.246 -337.649 411.825 -275.914 433.922 -220.187C451.698 -175.476 492.888 -147.445 523.75 -112.111C540.519 -92.9494 555.162 -72.4313 568.999 -51.0935C583.989 -27.9775 602.032 -17.8415 628.709 -9.70523C659.951 -0.145113 694.467 3.42264 723.326 19.5051C758.264 38.8115 758.746 71.6673 750.535 105.623C741.429 143.25 722.028 180.227 701.619 214.875C686.51 240.6 670.11 263.11 664.251 292.894C660.108 314.211 659.257 338.976 673.117 357.15C698.929 391.226 755.204 381.879 790.949 377.146M367.387 -372.175C381.276 -315.514 379.919 -253.584 403.49 -199.532C422.978 -154.886 467.517 -137.325 501.573 -105.72C519.533 -89.1185 534.416 -69.7902 543.166 -46.7708C548.936 -31.4656 549.564 -22.3808 562.999 -11.5426C572.429 -3.97119 584.451 1.03982 595.544 5.65863C626.864 18.5566 662.67 25.3392 690.933 44.8028C724.063 67.6132 717.507 100.604 708.272 134.806C692.847 192.218 657.831 247.048 648.058 307.35C644.342 330.401 641.27 357.16 651.348 379.055C669.888 419.471 721.835 415.912 758.872 412.994M336.552 -343.002C349.254 -290.782 348.508 -233.409 369.504 -183.574C389.862 -135.233 437.046 -128.548 475.064 -98.5527C494.099 -83.5113 508.104 -64.4881 512.688 -40.2076C515.556 -25.0776 511.3 -13.9627 521.425 -1.19568C530.172 9.80767 543.1 16.974 555.273 23.6467C581.492 38.0013 611.209 47.7495 634.828 66.6528C666.456 92.0894 657.925 126.698 653.181 162.599C646.255 215.175 638.856 268.142 632.445 321C629.432 345.858 625.17 373.778 632.795 398.27C646.203 441.093 693.477 442.126 730.955 441.167M310.405 -312.593C323.914 -266.795 322.082 -216.49 339.082 -171.909C358.974 -119.564 407.975 -121.172 449.056 -92.728C472.64 -76.4878 482.864 -55.144 481.496 -26.4611C480.78 -12.2757 475.124 -1.16133 481.592 12.3373C486.747 22.9838 496.199 30.1925 505.375 37.3285C528.951 55.5569 558.066 67.8735 578.338 90.244C602.463 117.02 594.518 154.437 597.554 187.671C602.122 237.747 621.096 280.71 617.588 332.343C615.888 357.253 611.423 384.825 619.846 409.085C633.242 447.481 672.408 452.422 708.246 454.053M295.941 -285.961C311.876 -244.611 299.415 -198.727 316.307 -157.935C336.099 -109.965 391.778 -115.932 429.769 -90.587C453.171 -75.0579 461.399 -51.7339 457.122 -24.0389C452.09 8.7641 438.805 24.2076 465.165 50.6146C486.642 72.0495 514.987 86.4484 533.503 111.01C553.411 137.559 545.241 179.192 554.954 208.068C562.883 231.682 582.816 250.867 592.799 274.801C601.441 295.433 600.766 318.696 600.141 340.645C599.473 363.32 596.736 388.251 604.064 410.233C615.241 443.622 644.617 452.985 676.934 458.185M282.322 -265.889C280.617 -225.574 271.167 -178.529 294.758 -142.458C319.793 -104.311 371.711 -106.919 407.381 -83.9557C432.025 -68.0996 441.231 -44.2964 437.042 -15.2517C432.415 16.8476 416.322 34.2783 439.518 62.0628C458.796 85.1296 485.849 100.515 504.793 124.01C526.291 150.683 522.904 187.311 536.491 216.028C557.583 261.023 580.965 294.533 581.338 348.221C581.718 401.322 586.464 441.493 642.743 460.379M253.399 -264.665C244.166 -217.047 237.29 -161.584 276.474 -125.384C308.55 -95.7747 354.257 -98.0296 388.628 -73.4918C412.821 -56.2064 419.922 -30.0094 415.805 -1.24042C411.746 27.0279 398.548 45.2214 415.242 71.6613C429.224 93.8482 452.336 110.48 470.376 129.019C498.33 157.763 504.393 186.782 520.918 221.138C542.242 265.531 559.164 305.373 562.934 355.681C566.241 400.191 576.516 439.24 615.24 465.441M217.745 -272.587C204.793 -211.133 201.124 -138.754 262.092 -102.416C295.862 -82.3118 340.023 -84.0159 371.484 -60.4659C424.063 -21.1047 369.853 36.6273 392.991 83.9308C404.991 108.323 428.581 128.177 447.658 146.694C458.11 156.82 472.045 167.716 480.872 179.256C491.33 192.996 498.014 211.269 505.41 226.56C527.046 270.888 535.28 316.844 546.844 364.709C556.698 405.637 579.881 445.213 604.032 479.441M184.057 -278.738C169.963 -210.434 161.556 -114.758 238.32 -80.7432C274.356 -64.7597 320.594 -70.7078 352.686 -46.4756C402.587 -8.70437 353.377 50.1976 371.53 97.9564C393.778 156.746 462.696 176.899 490.163 231.83C513.126 277.835 516.641 331.908 533.973 380.262C553.342 434.312 573.372 488.094 605.753 535.844M160.516 -272.484C146.13 -198.876 142.529 -109.968 217.542 -68.749C252.379 -49.6168 296.853 -54.1868 329.563 -30.8976C377.76 3.54964 338.622 61.7151 348.198 108.172C353.522 134.122 371.829 154.721 391.886 170.916C419.814 193.609 458.972 203.339 473.929 238.609C485.26 265.257 488.523 294.275 494.303 322.409C499.475 348.098 508.369 371.966 516.473 396.879C534.977 453.65 549.702 509.941 582.547 560.687M145.25 -254.835C136.075 -184.498 137.528 -105.537 202.643 -62.2818C237.087 -39.4201 280.534 -33.9409 311.457 -4.70959C350.307 31.9185 327.151 77.268 334.769 122.766C346.028 190.528 429.86 203.038 453.56 260.515C472.127 305.582 482.55 358.896 495.078 407.016C508.955 460.651 515.416 512.773 545.149 560.783M133.241 -232.201C129.742 -167.739 134.209 -97.4184 190.145 -55.6977C227.773 -27.5743 268.14 -12.3656 298.356 26.262C329.115 65.6228 322.592 104.078 329.186 149.822C338.241 212.801 407.507 236.952 433.668 289.844C451.977 326.661 465.1 374.2 472.487 414.699C481.308 463.463 481.189 510.904 507.223 554.769M121.347 -209.167C123.983 -153.998 127.306 -93.0454 170.996 -53.5205C190.944 -35.511 216.155 -26.2868 235.399 -7.28351C254.694 11.8069 271.28 34.459 285.545 57.5312C310.992 98.588 320.099 138.434 326.09 185.347C333.355 242.252 385.696 274.401 413.935 320.248C432.892 350.969 446.157 387.342 451.34 423.058C458.187 470.639 455.747 517.099 481.68 559.389M106.879 -190.35C118.623 -138.972 112.799 -84.7061 154.173 -45.3488C174.281 -26.2654 199.985 -16.3952 218.285 4.79183C238.543 28.3378 253.633 57.2296 268.208 84.4379C289.186 123.432 315.88 167.029 320.602 211.765C326.228 265.658 360.398 304.664 393.696 345.579C415.332 372.289 426.953 399.235 431.215 433.971C437.104 482.11 433.925 526.901 464.422 567.814M88.415 -178.188C94.9981 -122.052 92.5437 -75.8173 137.176 -34.2748C157.834 -15.0461 181.739 -3.66003 198.804 19.4132C217.502 44.6855 231.728 73.4973 245.86 101.547C258.861 127.456 270.693 154.163 285.835 178.94C296.488 196.417 307.259 208.691 310.3 229.321C317.705 279.26 337.121 324.182 373.555 360.468C432.526 419.205 392.519 513.114 449.197 574.122M70.6335 -166.657C64.9158 -105.802 73.9345 -63.1039 121.397 -22.511C143.1 -3.89139 164.196 9.48181 180.245 33.614C197.295 59.2631 210.615 87.3199 224.566 114.659C237.944 140.814 250.69 169.089 268.648 192.692C280.093 207.723 293.136 218.09 297.265 237.385C301.379 256.455 299.9 274.936 306.264 293.862C315.564 321.228 333.33 351.71 353.423 371.969C411.342 430.503 369.825 524.825 434.08 580.016M53.6283 -154.995C46.2589 -121.997 40.1077 -86.9087 57.9395 -56.1147C70.6807 -34.2549 93.1841 -20.0684 112.756 -5.10668C158.014 29.3033 177.835 77.723 203.867 127.19C216.731 151.662 229.586 178.122 248.271 198.968C262.625 214.988 279.703 223.469 285.231 245.566C290.629 267.038 287.559 289.596 293.509 311.214C300.632 337.049 314.874 364.685 333.392 383.644C390.6 442.359 347.283 538.197 417.606 587.984M36.2966 -143.493C24.921 -108.16 13.5146 -67.675 38.7979 -35.507C55.0298 -14.8649 79.9075 -5.21272 100.778 9.57536C142.381 39.1152 159.355 96.662 182.994 139.822C195.836 163.257 209.911 190.407 230.483 208.286C247.225 222.797 265.319 228.819 272.553 251.438C279.286 272.6 275.461 296.065 278.486 317.87C282.388 345.583 293.893 374.93 313.158 394.971C336.006 418.758 347.223 442.206 350.106 476.579C354.195 526.234 359.681 565.274 401.138 598.166M17.8766 -132.057C3.7146 -96.4997 -10.9934 -56.0739 16.4229 -23.0489C33.1629 -2.93636 58.5338 7.36177 79.7746 21.584C124.759 51.72 136.45 108.612 161.119 153.739C174.23 177.834 190.989 205.986 214.972 220.71C233.877 232.327 251.747 236.962 260.149 260.185C278.119 310.033 253.197 363.763 293.25 406.458C317.063 431.899 320.349 454.953 325.728 490.205C333.061 539.019 359.91 574.475 395.925 607.038" stroke="url(#paint0_linear_3184_61392)" stroke-width="1.51976" stroke-miterlimit="10"/>
<defs>
<linearGradient id="paint0_linear_3184_61392" x1="588.201" y1="-76.0502" x2="104.139" y2="150.3" gradientUnits="userSpaceOnUse">
<stop stop-color="#6FD7C9"/>
<stop offset="0.556898" stop-color="#6FD7C9" stop-opacity="0.5"/>
<stop offset="1" stop-color="#6FD7C9" stop-opacity="0"/>
</linearGradient>
</defs>
</svg>
