<svg width="302" height="814" viewBox="0 0 302 814" fill="none" xmlns="http://www.w3.org/2000/svg">
<path opacity="0.4" d="M-200.053 1105.48C-206.834 1039.18 -194.389 971.2 -207.935 905.472C-218.856 852.729 -258.828 813.831 -285.996 768.887C-300.765 744.506 -312.926 719.043 -324.04 692.833C-336.081 664.439 -354.005 649.762 -381.838 635.615C-414.426 619.011 -451.787 608.379 -480.483 585.048C-515.255 556.982 -509.41 520.665 -493.767 484.823C-476.426 445.107 -447.86 408.105 -418.634 373.867C-396.984 348.438 -374.535 326.803 -362.296 295.104C-353.59 272.406 -347.846 245.268 -359.6 222.541C-381.444 179.963 -445.3 179.347 -485.628 177.628M-164.078 1085.95C-168.395 1020.79 -154.879 952.773 -170.375 888.607C-183.197 835.602 -228.892 807.597 -260.305 766.144C-276.884 744.355 -289.541 720.158 -294.72 693.081C-298.112 675.087 -297.041 664.949 -309.749 650.393C-318.676 640.215 -330.958 632.358 -342.291 625.113C-374.318 604.814 -412.478 590.387 -439.86 563.444C-471.959 531.866 -458.328 496.766 -441.509 460.851C-413.361 400.548 -364.115 346.895 -341.637 282.309C-333.066 257.617 -324.487 228.711 -331.348 202.615C-343.944 154.459 -401.907 148.301 -443.305 144.331M-124.421 1059.77C-128.29 999.735 -116.333 936.626 -129.809 877.608C-142.872 820.363 -193.594 803.835 -229.688 763.387C-247.755 743.11 -259.503 719.419 -259.845 691.76C-260.071 674.523 -253.221 663.095 -261.906 647.054C-269.414 633.225 -282.276 622.816 -294.402 613.096C-320.522 592.182 -351.393 575.668 -373.765 550.243C-403.697 516.061 -387.575 479.561 -375.378 440.901C-357.538 384.281 -339.102 327.321 -321.775 270.29C-313.629 243.468 -303.511 213.514 -307.164 185.032C-313.636 135.218 -365.554 124.905 -407.06 118.688M-89.6928 1031.32C-95.6982 978.208 -83.9154 923.101 -94.0056 870.653C-105.778 809.082 -160.113 801.345 -199.884 762.013C-222.733 739.531 -229.862 714.015 -222.789 682.658C-219.246 667.158 -210.853 656.002 -215.364 639.865C-218.981 627.127 -228.003 617.345 -236.735 607.696C-259.19 583.024 -288.897 563.795 -306.907 535.197C-328.307 500.994 -312.287 461.284 -309.184 424.055C-304.502 367.96 -317.082 316.911 -303.193 260.667C-296.485 233.534 -286.212 204.003 -290.79 175.622C-298.106 130.69 -340.328 117.642 -379.522 108.889M-68.5782 1004.77C-78.1203 956.085 -55.4779 907.918 -66.1847 859.666C-78.6956 802.938 -141.238 798.711 -178.205 763.395C-200.992 741.733 -205.536 714.422 -195.446 684.718C-183.531 649.53 -165.889 635.082 -189.824 600.852C-209.343 573.052 -237.799 551.677 -253.446 521.005C-270.242 487.87 -253.154 443.556 -258.259 409.836C-262.418 382.263 -280.671 357.243 -287.032 328.918C-292.556 304.494 -287.296 278.978 -282.347 254.9C-277.21 230.031 -269.354 203.076 -273.167 177.42C-279.009 138.439 -309.58 122.415 -344.2 110.41M-49.6671 985.28C-39.9633 941.165 -20.4149 891.132 -39.4236 846.785C-59.6205 799.87 -117.366 792.669 -152.236 760.429C-176.327 738.165 -181.858 710.136 -171.602 678.927C-160.272 644.436 -139.147 628.342 -159.327 593.208C-176.105 564.036 -202.944 541.823 -219.27 512.244C-237.795 478.664 -226.952 438.94 -236.359 404.642C-250.88 350.942 -270.155 309.46 -260.147 250.197C-250.26 191.581 -247.696 146.371 -306.078 114.627M-17.542 989.545C1.87793 938.837 20.2234 879.024 -15.9517 831.509C-45.5688 792.64 -96.398 786.256 -129.529 752.533C-152.847 728.78 -155.592 698.52 -145.47 667.602C-135.509 637.224 -117.427 619.727 -130.701 587.337C-141.81 560.163 -164.063 537.341 -180.353 513.401C-205.595 476.286 -206.647 443.116 -218.198 402.031C-233.092 348.95 -244.016 301.74 -238.408 245.544C-233.417 195.83 -237.167 150.785 -274.774 114.384M20.2284 1005.2C46.4349 939.958 64.526 860.874 4.36234 808.979C-28.9671 780.26 -77.9852 773.568 -108.101 741.499C-158.429 687.899 -87.4593 634.771 -103.788 578.129C-112.284 548.908 -134.438 522.441 -151.877 498.324C-161.435 485.131 -174.684 470.414 -182.176 455.978C-191.039 438.8 -194.862 417.357 -200.048 399.063C-215.299 345.993 -215.458 293.729 -218.917 238.713C-221.838 191.678 -239.717 143.547 -259.7 101.124M56.1754 1018.52C84.9698 945.947 112.807 842.097 34.7763 789.698C-1.85043 765.083 -53.9818 762.667 -84.6605 729.723C-132.346 678.396 -66.6608 623.007 -77.4048 566.831C-90.5235 497.698 -162.594 462.104 -182.215 396.212C-198.604 341.036 -191.985 280.738 -201.709 224.065C-212.574 160.716 -224.218 97.5343 -250.652 38.6066M83.3428 1016.19C113.489 937.831 134.714 840.509 60.0121 780.507C25.3177 752.653 -24.6017 749.06 -56.1438 717.036C-102.596 669.704 -48.1575 613.173 -49.6989 560.096C-50.5324 530.454 -66.718 504.19 -85.6879 482.442C-112.074 452.004 -153.357 433.677 -163.002 391.889C-170.323 360.311 -168.288 327.685 -169.201 295.546C-169.917 266.221 -175.091 238.18 -179.19 209.141C-188.574 142.96 -193.882 78.0419 -220.245 15.7201M103.598 999.696C127.364 923.93 141.088 836.594 77.6933 776.269C44.1561 744.379 -2.68104 729.906 -31.0996 691.678C-66.8236 643.756 -32.4933 598.252 -32.0611 546.612C-31.3235 469.721 -121.32 439.658 -136.294 371.691C-148.018 318.402 -149.162 257.6 -153.636 202.117C-158.525 140.292 -155.533 81.5735 -178.996 22.8728M121.232 977.072C137.599 906.682 146.323 828.288 92.7494 771.435C56.7236 733.127 15.1702 708.525 -10.6451 660.074C-36.9179 610.71 -22.2638 569.579 -20.6558 517.866C-18.4162 446.675 -90.0937 406.606 -108.671 343.216C-121.711 299.073 -126.954 244.114 -127.238 198.031C-127.499 142.557 -118.161 90.2774 -138.35 36.864M138.815 953.986C146.615 892.651 154.781 824.806 114.284 772.751C95.787 749.025 69.7815 733.962 52.2536 709.276C34.6866 684.485 20.7962 656.292 9.54736 628.087C-10.5397 577.883 -12.8467 532.185 -10.3475 479.302C-7.31323 415.154 -58.7799 369.553 -81.0154 313.527C-95.9525 275.977 -103.519 233.302 -102.301 192.919C-100.616 139.133 -88.9093 88.3851 -109.292 36.7273M158.418 936.048C155.441 877.126 172.394 818.428 134.417 767.007C115.952 742.065 89.5286 726.195 73.4653 699.285C55.7008 669.394 44.6718 634.612 33.8833 601.787C18.323 554.724 -2.64607 501.479 0.829625 451.242C5.08618 390.733 -25.0154 341.097 -53.7859 289.527C-72.4551 255.881 -80.0386 223.917 -77.9954 184.794C-75.1458 130.578 -62.9476 81.8133 -88.6305 30.7877M181.134 926.223C184.771 863.056 196.45 812.559 155.306 758.097C136.262 732.888 112.117 715.696 97.7801 686.946C82.0713 655.454 71.9787 620.929 61.8418 587.261C52.5366 556.174 44.6745 524.433 32.7893 494.178C24.4362 472.842 14.9435 457.22 15.5954 433.886C17.1231 377.391 4.43554 324.097 -28.691 277.02C-82.3068 200.818 -19.9739 105.049 -70.6203 26.7888M202.976 916.961C221.09 850.979 219.434 802.154 174.985 748.189C154.671 723.449 134.008 704.611 120.997 674.891C107.178 643.304 97.9381 609.787 87.8629 576.939C78.1897 545.506 69.6245 511.86 54.4071 482.352C44.7065 463.559 32.3388 449.599 31.5312 427.525C30.6959 405.701 35.9138 385.613 32.5705 363.512C27.6285 331.537 13.9568 294.482 -4.26295 268.248C-56.7584 192.474 7.31877 96.5424 -52.8106 23.2245M223.987 907.404C238.516 872.454 252.108 834.964 238.424 797.553C228.62 770.98 206.563 750.972 187.889 730.678C144.67 683.958 132.215 626.729 113.115 567.14C103.683 537.663 94.6447 505.996 78.0911 479.387C65.3748 458.94 48.1925 446.275 46.3858 420.841C44.6017 396.12 52.3643 371.846 50.0005 346.857C47.1606 316.993 36.8234 283.76 20.0869 259.264C-31.5894 183.428 34.7665 86.1744 -33.1015 17.6364M245.328 898.087C264.726 861.34 285.159 818.92 263.527 778.548C249.638 752.64 224.084 737.17 203.944 716.816C163.81 676.175 156.265 609.435 138.579 557.264C128.969 528.935 118.721 496.271 99.5105 472.567C83.8689 453.319 65.0885 443.169 61.5035 416.827C58.1868 392.19 66.9577 367.062 67.8543 342.435C68.9315 311.125 61.9431 276.536 44.593 250.703C24.0193 220.044 16.2035 192.015 19.696 153.56C24.8243 98.022 26.3524 53.9162 -12.9699 9.60715M267.855 889.053C290.369 852.601 314.43 810.886 290.613 769.155C276.061 743.733 250.088 727.455 229.431 707.653C185.685 665.698 183.836 600.706 165.397 546.166C155.619 517.057 142.606 482.767 119.022 461.879C100.434 445.403 81.6317 436.824 76.876 409.591C66.7384 351.146 104.642 296.746 68.7701 241.902C47.4543 209.232 48.3056 183.178 49.217 143.269C50.606 88.0284 27.8857 43.7279 -5.50073 0.837195" stroke="url(#paint0_linear_3184_61391)" stroke-width="1.51976" stroke-miterlimit="10"/>
<defs>
<linearGradient id="paint0_linear_3184_61391" x1="-350.054" y1="716.621" x2="227.55" y2="561.016" gradientUnits="userSpaceOnUse">
<stop stop-color="#6FD7C9"/>
<stop offset="0.556898" stop-color="#6FD7C9" stop-opacity="0.5"/>
<stop offset="1" stop-color="#6FD7C9" stop-opacity="0"/>
</linearGradient>
</defs>
</svg>
