<svg width="80" height="80" viewBox="0 0 80 80" fill="none" xmlns="http://www.w3.org/2000/svg">
<path d="M45.2182 18.7422H47.2182V16.7422H45.2182V18.7422ZM45.2182 58.3058V60.3058H47.2182V58.3058H45.2182ZM23.7818 20.7422H45.2182V16.7422H23.7818V20.7422ZM2 38.524C2 50.5538 11.7521 60.3058 23.7818 60.3058V56.3058C13.9612 56.3058 6 48.3446 6 38.524H2ZM23.7818 16.7422C11.7521 16.7422 2 26.4942 2 38.524H6C6 28.7034 13.9612 20.7422 23.7818 20.7422V16.7422ZM45.2182 56.3058H36.1455V60.3058H45.2182V56.3058ZM43.2182 18.7422V58.3058H47.2182V18.7422H43.2182Z" fill="#30333B"/>
<path d="M27.5552 70.6034L29.1104 71.8609L27.5552 70.6034ZM24 69.3458L26 69.3458L26 69.3458L24 69.3458ZM36.445 56.4287L26 69.3458L29.1104 71.8609L39.5553 58.9438L36.445 56.4287ZM26 69.3458L26 56.5L22 56.5L22 69.3458L26 69.3458ZM26 69.3458C25.9919 69.3558 25.9867 69.3608 25.9849 69.3623C25.9832 69.3639 25.9837 69.3632 25.9865 69.3614C25.9893 69.3596 25.9931 69.3575 25.9977 69.3556C26.0023 69.3536 26.0066 69.3522 26.0103 69.3513C26.0178 69.3494 26.0205 69.3499 26.0177 69.3498C26.0145 69.3496 26.008 69.3487 26 69.3458C25.992 69.343 25.9864 69.3396 25.9838 69.3378C25.9815 69.3361 25.984 69.3374 25.9886 69.3436C25.9909 69.3467 25.9934 69.3505 25.9957 69.3548C25.998 69.3592 25.9996 69.3633 26.0007 69.3664C26.0018 69.3696 26.0017 69.3704 26.0014 69.3681C26.001 69.3658 26 69.3587 26 69.3458L22 69.3458C22 73.1165 26.7395 74.7929 29.1104 71.8609L26 69.3458Z" fill="#30333B"/>
<path d="M43.5 52L53.5 52L53.5 63.5" stroke="#30333B" stroke-width="4"/>
<path d="M45 22L60.25 22L68 14.25" stroke="#30333B" stroke-width="4"/>
<path d="M44.5 33L57 33L57 43.5C59.3333 43.5 64 43.5 64 43.5" stroke="#30333B" stroke-width="4"/>
<circle r="5" transform="matrix(-4.37114e-08 -1 -1 4.37114e-08 53.5 65.5)" fill="#2FC3C2"/>
<circle cx="66.5" cy="43.5" r="4.5" transform="rotate(90 66.5 43.5)" fill="#2FC3C2"/>
<circle cx="68" cy="13" r="5" transform="rotate(-90 68 13)" fill="#2FC3C2"/>
</svg>
