<svg width="80" height="80" viewBox="0 0 80 80" fill="none" xmlns="http://www.w3.org/2000/svg">
<path d="M49.2205 16.0037C51.6355 15.9394 53.9987 16.7098 55.9118 18.185C57.8249 19.6602 59.1708 21.75 59.7225 24.1019" stroke="#2FC3C2" stroke-width="4"/>
<path d="M48.1189 5.0444C53.2651 4.71315 58.3589 6.24257 62.4714 9.35378C66.5839 12.465 69.4413 16.9507 70.5223 21.9929" stroke="#2FC3C2" stroke-width="4"/>
<path d="M16.6727 12H30.3273V8H16.6727V12ZM1 23.6727C1 32.3285 8.01692 39.3455 16.6727 39.3455V35.3455C10.2261 35.3455 5 30.1194 5 23.6727H1ZM30.3273 12C36.7739 12 42 17.2261 42 23.6727H46C46 15.0169 38.9831 8 30.3273 8V12ZM16.6727 8C8.01692 8 1 15.0169 1 23.6727H5C5 17.2261 10.2261 12 16.6727 12V8ZM33 35.3455H26V39.3455H33V35.3455ZM42 23.6727C42 25.6253 41.5222 27.4604 40.6788 29.0732L44.2233 30.9268C45.3588 28.7557 46 26.2861 46 23.6727H42Z" fill="#30333B"/>
<path d="M20.15 45.0637L18.6719 43.7164L20.15 45.0637ZM16.6719 43.7165L18.6719 43.7164L16.6719 43.7165ZM26.0219 35.6527L18.6719 43.7164L21.6281 46.411L28.9781 38.3473L26.0219 35.6527ZM18.6719 43.7164L18.6714 35.3558L14.6714 35.3561L14.6719 43.7167L18.6719 43.7164ZM18.6719 43.7164C18.6642 43.7248 18.6593 43.729 18.6577 43.7302C18.6561 43.7315 18.6566 43.7309 18.6592 43.7295C18.6618 43.728 18.6653 43.7263 18.6694 43.7247C18.6735 43.7232 18.6774 43.7221 18.6807 43.7214C18.6874 43.72 18.6898 43.7206 18.6874 43.7204C18.6846 43.7201 18.6789 43.7191 18.6719 43.7164C18.6649 43.7137 18.66 43.7106 18.6578 43.7089C18.6558 43.7074 18.658 43.7086 18.662 43.7142C18.664 43.7169 18.6661 43.7203 18.6681 43.7242C18.6701 43.7282 18.6716 43.7318 18.6725 43.7346C18.6734 43.7374 18.6734 43.7382 18.6731 43.7362C18.6728 43.7342 18.6719 43.7278 18.6719 43.7164L14.6719 43.7167C14.6721 47.3701 19.167 49.1111 21.6281 46.411L18.6719 43.7164Z" fill="#30333B"/>
<rect x="15" y="16" width="16" height="4" fill="#30333B"/>
<rect x="15" y="22" width="16" height="4" fill="#30333B"/>
<rect x="15" y="28" width="10" height="4" fill="#30333B"/>
<path d="M60.2827 31H46.7173V27H60.2827V31ZM79 46C79 56.4617 70.6515 65 60.2827 65V61C68.3794 61 75 54.316 75 46H79ZM32 46C32 54.316 38.6206 61 46.7173 61V65C36.3485 65 28 56.4617 28 46H32ZM46.7173 31C38.6206 31 32 37.684 32 46H28C28 35.5383 36.3485 27 46.7173 27V31ZM60.2827 27C70.6515 27 79 35.5383 79 46H75C75 37.684 68.3794 31 60.2827 31V27ZM46.7173 61H49.8344V65H46.7173V61Z" fill="#30333B"/>
<path d="M57.1529 72.6612L55.6672 74L55.6672 74L57.1529 72.6612ZM60.6387 71.3223L62.6387 71.3223L62.6387 71.3223L60.6387 71.3223ZM49.4847 61.1641L58.6387 71.3223L55.6672 74L46.5132 63.8418L49.4847 61.1641ZM58.6387 71.3223L58.6387 61.0019L62.6387 61.002L62.6387 71.3223L58.6387 71.3223ZM58.6387 71.3223C58.6464 71.3309 58.6513 71.335 58.653 71.3363C58.6546 71.3377 58.6541 71.3371 58.6514 71.3356C58.6488 71.3341 58.6453 71.3323 58.6411 71.3307C58.637 71.3292 58.6331 71.3281 58.6297 71.3273C58.6229 71.3259 58.6205 71.3265 58.623 71.3263C58.6258 71.326 58.6316 71.325 58.6387 71.3223C58.6458 71.3196 58.6507 71.3164 58.653 71.3147C58.655 71.3132 58.6528 71.3144 58.6487 71.32C58.6467 71.3228 58.6445 71.3263 58.6425 71.3302C58.6405 71.3342 58.639 71.3378 58.6381 71.3407C58.6371 71.3436 58.6372 71.3443 58.6375 71.3423C58.6378 71.3402 58.6387 71.3338 58.6387 71.3223L62.6387 71.3223C62.6387 74.987 58.1205 76.7224 55.6672 74L58.6387 71.3223Z" fill="#30333B"/>
<path d="M58.4453 55.1613L59.5547 53.4972L58.4453 55.1613ZM53.7558 52.035L54.8652 50.3709L53.7558 52.035ZM58.4453 38.8176L57.3359 37.1535L58.4453 38.8176ZM53.5008 42.1139L54.6102 43.778L53.5008 42.1139ZM54.6102 43.778L59.5547 40.4817L57.3359 37.1535L52.3914 40.4498L54.6102 43.778ZM48 44.1171H53.4983V40.1171H48V44.1171ZM49 50.8671V43.1171H45V50.8671H49ZM53.2011 49.8671H48V53.8671H53.2011V49.8671ZM59.5547 53.4972L54.8652 50.3709L52.6464 53.6991L57.3359 56.8254L59.5547 53.4972ZM58 39.6496V54.3293H62V39.6496H58ZM57.3359 56.8254C59.3296 58.1545 62 56.7254 62 54.3293H58C58 53.5306 58.8902 53.0542 59.5547 53.4972L57.3359 56.8254ZM53.2011 53.8671C53.0037 53.8671 52.8107 53.8086 52.6464 53.6991L54.8652 50.3709C54.3724 50.0424 53.7934 49.8671 53.2011 49.8671V53.8671ZM45 50.8671C45 52.5239 46.3431 53.8671 48 53.8671V49.8671C48.5523 49.8671 49 50.3148 49 50.8671H45ZM48 40.1171C46.3431 40.1171 45 41.4602 45 43.1171H49C49 43.6693 48.5523 44.1171 48 44.1171V40.1171ZM51.5 42.1154C51.5 41.0117 52.3947 40.1171 53.4983 40.1171V44.1171C54.6038 44.1171 55.5 43.2209 55.5 42.1154H51.5ZM59.5547 40.4817C58.8901 40.9247 58 40.4483 58 39.6496H62C62 37.2535 59.3296 35.8244 57.3359 37.1535L59.5547 40.4817ZM52.3914 40.4498C51.8345 40.8211 51.5 41.4461 51.5 42.1154H55.5C55.5 42.7835 55.1661 43.4074 54.6102 43.778L52.3914 40.4498Z" fill="#30333B"/>
</svg>
