<svg width="65" height="71" viewBox="0 0 65 71" fill="none" xmlns="http://www.w3.org/2000/svg">
<path d="M8.99988 65C8.99988 67.2091 10.7907 69 12.9999 69H50.9999C53.209 69 54.9999 67.2091 54.9999 65V63H8.99988V65Z" stroke="#30333B" stroke-width="4"/>
<path d="M8.99988 63H54.9999V41C54.9999 38.7909 53.209 37 50.9999 37H12.9999C10.7907 37 8.99988 38.7909 8.99988 41V63Z" stroke="#30333B" stroke-width="4"/>
<path d="M41.9999 11.9412C41.9999 14.7905 40.8049 18.6902 38.7939 21.8762C36.7272 25.1503 34.2499 27 31.9999 27C29.7499 27 27.2725 25.1503 25.2059 21.8762C23.1949 18.6902 21.9999 14.7905 21.9999 11.9412C21.9999 6.46007 26.4678 2 31.9999 2C37.532 2 41.9999 6.46007 41.9999 11.9412Z" stroke="#30333B" stroke-width="4"/>
<path d="M40.6707 7C41.7376 10 40.1373 11.5 36.9365 13C32.6689 9 24.1337 9.5 21.9999 11.5" stroke="#30333B" stroke-width="4"/>
<path d="M26.9999 23.5C26.9999 25 25.9999 26.5 23.4999 28.5C11.9999 28.5 10.9999 36.5 9.99988 38.5" stroke="#30333B" stroke-width="4"/>
<path d="M36.9999 23.5C36.9999 25 37.9999 26.5 40.4999 28.5C51.9999 28.5 52.9999 36.5 53.9999 38.5" stroke="#30333B" stroke-width="4"/>
<path d="M8.99989 40.5004L2.90377 53.3704C1.46199 56.4142 3.38099 59.984 6.71517 60.4605L10.4999 61.0013" stroke="#30333B" stroke-width="4"/>
<path d="M54.9997 40.5024L61.2112 53.374C62.6774 56.4123 60.7755 60.001 57.438 60.4935L53.9997 61.0008" stroke="#30333B" stroke-width="4"/>
<circle cx="31.9999" cy="50" r="4" fill="#2FC3C2"/>
</svg>
