<svg width="32" height="32" viewBox="0 0 32 32" fill="none" xmlns="http://www.w3.org/2000/svg">
<rect width="32" height="32" rx="6" fill="#3375B0"/>
<path fill-rule="evenodd" clip-rule="evenodd" d="M11.543 9.8818C11.543 10.9279 10.7556 11.7649 9.49133 11.7649H9.46816C8.25084 11.7649 7.46387 10.9279 7.46387 9.8818C7.46387 8.8136 8.27481 8 9.51522 8C10.7556 8 11.5195 8.8136 11.543 9.8818ZM11.3032 13.25V24.1445H7.67725V13.25H11.3032ZM24.3822 24.1464L24.3823 17.8998C24.3823 14.5535 22.5935 12.9961 20.2075 12.9961C18.2823 12.9961 17.4204 14.0535 16.9392 14.7953V13.2522H13.3128C13.3606 14.2745 13.3128 24.1467 13.3128 24.1467H16.9392V18.0623C16.9392 17.7367 16.9627 17.4119 17.0586 17.1788C17.3206 16.5283 17.9173 15.8548 18.919 15.8548C20.2317 15.8548 20.7564 16.8538 20.7564 18.3178V24.1464H24.3822Z" fill="#FCFCFC"/>
</svg>
