<svg width="654" height="573" viewBox="0 0 654 573" fill="none" xmlns="http://www.w3.org/2000/svg">
<path opacity="0.4" d="M1063.02 230.852C1005.42 203.848 939.873 192.904 885.04 160.243C841.056 133.99 819.27 87.0771 787.751 49.2875C770.663 28.7609 751.728 10.1399 731.768 -7.8154C710.146 -27.267 702.874 -47.4214 699.387 -75.9605C695.27 -109.387 698.137 -145.03 686.645 -177.243C672.905 -216.213 638.159 -222.753 600.572 -220.684C558.92 -218.385 515.972 -205.53 475.301 -191.225C445.112 -180.649 418.084 -168.173 385.373 -167.72C361.971 -167.446 335.548 -171.145 318.947 -188.541C287.788 -220.981 308.543 -276.299 320.448 -311.658M1033.38 255.677C975.977 231.162 910.048 221.131 857.275 187.285C813.689 159.308 803.65 110.929 776.7 70.5886C762.557 49.3266 744.93 30.6816 722.207 17.5729C707.09 8.90503 697.578 6.59515 688.674 -9.01815C682.463 -19.9711 679.466 -33.0791 676.706 -45.1736C669.064 -79.2949 668.771 -116.837 653.579 -149.069C635.775 -186.852 599.53 -186.282 561.484 -183.222C497.635 -178.161 432.749 -152.768 366.925 -153.969C341.766 -154.448 312.8 -156.263 291.525 -170.511C252.242 -196.747 266.025 -248.745 276.256 -285.747M996.506 281.557C943.583 259.065 882.602 249.253 833.805 218.793C786.47 189.255 788.473 140.198 763.992 96.138C751.711 74.0742 734.238 56.3752 709.375 47.2563C693.885 41.5625 681.279 43.8292 669.692 31.2151C659.71 20.3226 654.602 5.89908 649.873 -7.66878C639.703 -36.8876 635.093 -68.8045 619.6 -96.2265C598.722 -132.969 560.381 -130.697 521.398 -132.501C464.315 -135.164 406.726 -137.421 349.442 -140.658C322.503 -142.183 292.077 -143.005 267.575 -155.245C224.752 -176.723 232.765 -224.829 241.004 -262.64M959.225 302.459C913.266 280.331 859.57 272.922 815.575 247.48C763.903 217.676 775.05 168.305 752.805 121.427C740.129 94.5311 719.467 80.2374 688.789 76.3401C673.61 74.4532 660.735 78.1394 647.667 69.0976C637.372 61.9112 631.549 51.0029 625.751 40.3874C610.965 13.1336 603.514 -18.6451 583.7 -43.3138C559.956 -72.6979 518.75 -71.5373 484.095 -80.7355C431.877 -94.589 389.977 -121.734 334.551 -127.688C307.811 -130.553 277.715 -131.106 253.614 -144.112C215.48 -164.762 217.788 -205.371 222.964 -241.995M928.198 312.214C887.422 288.447 836.369 292.626 796.369 267.99C749.318 239.094 766.372 183.758 746.818 140.582C734.861 114.001 711.715 101.366 681.524 100.599C645.772 99.6588 626.836 110.279 603.915 78.6977C585.324 52.98 575.518 21.5982 553.042 -1.69344C528.726 -26.7627 483.006 -26.1491 454.259 -41.3125C430.748 -53.6995 414.246 -77.437 390.791 -91.9642C370.578 -104.524 345.781 -108.123 322.387 -111.533C298.214 -115.032 271.251 -116.85 249.355 -128.326C216.104 -145.805 211.836 -177.305 212.55 -211.019M904.29 322.321C861.214 316.624 809.509 317.537 775.806 286.982C740.18 254.581 752.95 202.437 735.473 162.052C723.408 134.154 699.942 120.437 668.337 119.335C633.409 118.112 611.826 131.213 586.834 102.585C566.089 78.7957 554.988 48.5417 533.726 25.0122C509.584 -1.69059 470.093 -5.00375 442.261 -24.0655C398.614 -53.7317 367.587 -83.6033 310.731 -93.8697C254.499 -104.035 212.817 -116.245 203.635 -176.767M897.42 351.413C845.148 352 785.013 348.754 754.178 302.37C728.962 264.404 740.16 218.491 720.764 179.133C707.097 151.428 680.687 139.405 649.389 138.279C618.632 137.186 596.798 147.213 571.979 125.422C551.147 107.164 537.964 80.674 521.783 58.9749C496.69 25.3459 467.088 13.8555 433.842 -9.2215C390.878 -39.0124 351.892 -63.5024 299.274 -76.5894C252.715 -88.14 213.289 -105.747 192.968 -149.823M898.95 389.01C831.291 390.819 753.837 381.206 727.053 312.717C712.242 274.785 722.558 230.338 703.649 194.111C672.043 133.568 600.381 177.881 554.681 145.716C531.129 129.06 514.622 101.493 498.664 78.7462C489.94 66.2866 481.071 50.155 470.535 39.0829C457.982 25.9517 439.893 15.8116 425.104 5.49884C382.27 -24.5963 335.127 -41.4065 286.601 -61.9436C245.101 -79.4696 207.604 -110.258 175.963 -141.041M898.981 424.289C823.839 425.994 720.768 416.893 699.492 332.82C689.487 293.351 704.703 247.58 685.192 210.588C654.756 153.051 582.817 192.081 535.674 164.886C477.623 131.507 469.533 57.9399 416.579 19.9824C372.222 -11.7668 315.562 -25.2887 267.63 -51.7625C214.049 -81.3502 160.881 -111.558 116.489 -153.174M887.814 446.998C806.991 448.022 712.023 435.297 682.77 351.672C669.195 312.837 682.611 268.6 664.218 231.157C636.979 175.959 567.762 204.916 520.346 186.654C493.856 176.478 475.541 154.128 462.232 130.815C443.552 98.3273 440.78 56.8452 406.263 35.1888C380.189 18.7947 350.048 10.1435 321.33 -0.897357C295.088 -10.8708 271.493 -24.2827 246.637 -37.0849C190.005 -66.2975 133.154 -91.5901 85.6738 -134.228M866.158 459.221C789.808 455.565 706.361 439.55 673.042 365.582C655.437 326.459 657.998 281.412 632.961 244.685C601.608 198.56 549.06 213.678 502.283 197.577C432.601 173.684 435.489 86.4077 379.11 51.7994C334.9 24.6794 280.376 4.29535 231.767 -17.2666C177.568 -41.2104 123.545 -57.3596 78.3665 -96.3395M839.843 467.225C770.817 458.898 697.113 441.418 663.652 377.037C641.081 333.718 632.733 290 597.596 252.26C561.786 213.833 519.754 213.361 472.518 198.252C407.483 177.474 395.221 102.819 344.178 66.5599C308.666 41.2214 260.786 19.1629 219.267 4.21638C169.259 -13.7058 118.933 -22.3235 77.4363 -56.7906M813.128 475.037C755.137 462.204 691.146 447.609 657.654 396.046C642.401 372.51 637.478 345.256 621.035 322.251C604.511 299.178 583.687 278.194 561.971 259.485C523.339 226.13 482.843 209.561 434.253 194.847C375.313 177.003 351.31 118.028 308.137 80.9611C279.214 56.0884 243.202 35.9431 206.329 24.1115C157.196 8.4074 107.461 2.3234 67.6153 -31.7512M790.387 486.236C738.172 464.87 679.508 460.778 645.747 411.592C629.386 387.696 623.873 359.824 604.934 337.373C583.87 312.503 556.142 291.887 530.1 272.102C492.794 243.657 451.709 208.57 405.184 195.544C349.122 179.915 314.345 138.096 277.377 96.8097C253.224 69.9605 226.891 53.2175 190.879 42.5002C140.969 27.6642 92.8626 22.6372 55.3561 -15.8104M773.933 502.711C715.678 485.699 666.18 479.671 630.73 426.781C614.321 402.3 606.854 375.973 585.676 354.426C562.481 330.82 534.672 311.093 507.652 291.603C482.684 273.653 456.646 256.741 433.29 236.829C416.812 222.812 405.872 209.634 384.583 202.753C333.057 186.049 289.164 158.095 257.708 114.482C206.789 43.8906 99.5032 67.1451 45.7343 -1.53964M758.28 518.611C692.651 513.197 649.113 496.192 615.216 440.608C599.654 415.18 589.539 391.334 567.042 370.621C543.13 348.616 515.947 329.947 489.646 310.771C464.489 292.394 436.965 274.267 415.397 251.717C401.664 237.348 393.185 222.219 373.52 214.48C354.092 206.797 334.21 204.892 315.368 194.956C288.142 180.489 259.244 156.867 241.634 132.77C190.727 63.2824 82.7132 87.9907 36.572 12.6969M742.638 533.699C706.228 535.091 667.837 534.863 638.62 511.117C617.896 494.176 607.19 468.754 595.096 446.16C567.33 393.949 519.807 364.94 472.37 329.443C448.9 311.897 423.319 293.994 404.815 271.216C390.595 253.716 384.892 234.844 362.527 225.17C340.799 215.744 316.288 214.701 294.511 204.688C268.49 192.71 241.93 173.185 225.394 150.923C174.159 82.1227 64.1903 108.376 24.9481 27.9273M727.102 549.148C687.445 554.17 642.319 558.275 613.081 526.723C594.32 506.469 588.879 479.475 577.22 455.597C553.913 407.987 496.164 380.184 454.953 348.273C432.579 330.94 406.502 311.674 391.508 287.529C379.347 267.887 376.448 248.437 353.857 236.939C332.716 226.217 307.098 225.772 284.559 218.689C255.926 209.631 227.024 192.564 209.485 169.346C188.666 141.806 165.963 126.117 130.071 116.864C78.2072 103.574 37.8681 90.8222 10.9788 42.7435M711.427 565.712C670.995 573.517 625.295 580.979 595.559 547.108C577.458 526.436 571.427 498.823 560.439 474.674C537.152 423.527 479.079 401.199 435.982 367.882C412.959 350.156 386.336 327.984 375.345 300.962C366.67 279.661 365.198 260.694 342.193 247.901C292.798 220.505 231.023 235.869 193.47 187.408C171.081 158.586 147.269 151.009 110.926 139.064C60.5783 122.641 28.1561 88.8955 0.566559 46.3932" stroke="url(#paint0_linear_3191_45683)" stroke-width="1.07198" stroke-miterlimit="10"/>
<defs>
<linearGradient id="paint0_linear_3191_45683" x1="761.931" y1="-22.6816" x2="448.337" y2="439.626" gradientUnits="userSpaceOnUse">
<stop stop-color="#6FD7C9"/>
<stop offset="0.556898" stop-color="#6FD7C9" stop-opacity="0.5"/>
<stop offset="1" stop-color="#6FD7C9" stop-opacity="0"/>
</linearGradient>
</defs>
</svg>
