<svg width="296" height="265" viewBox="0 0 296 265" fill="none" xmlns="http://www.w3.org/2000/svg">
<path opacity="0.3" d="M557.782 83.6639C527.928 67.6229 493.556 60.2947 465.282 41.184C442.604 25.8249 432.067 -0.507529 416.204 -21.9929C407.606 -33.6627 397.993 -44.3164 387.825 -54.6226C376.811 -65.7877 373.386 -77.0595 372.131 -92.8871C370.643 -111.426 372.888 -131.052 367.482 -149.065C361.029 -170.853 342.823 -175.146 322.94 -174.74C300.907 -174.288 277.973 -168.032 256.212 -160.93C240.06 -155.681 225.537 -149.322 208.262 -149.713C195.903 -150.021 182.032 -152.582 173.626 -162.513C157.844 -181.037 169.934 -211.177 176.944 -230.469M541.626 96.7908C511.829 82.1284 477.234 75.2966 450.072 55.572C427.639 39.2687 423.332 12.3571 409.934 -10.4471C402.905 -22.4653 393.983 -33.1066 382.258 -40.7907C374.456 -45.8735 369.483 -47.3355 365.103 -56.1317C362.049 -62.3017 360.736 -69.5987 359.527 -76.3313C356.193 -95.3229 356.809 -116.06 349.451 -134.156C340.828 -155.368 321.684 -155.764 301.539 -154.82C267.733 -153.278 232.962 -140.528 198.242 -142.482C184.972 -143.239 169.719 -144.81 158.781 -153.095C138.584 -168.352 146.926 -196.795 153.085 -217.027M521.631 110.359C494.157 96.9011 462.17 90.2877 437.037 72.5108C412.657 55.2718 414.721 28.222 402.703 3.41206C396.672 -9.01235 387.812 -19.1283 374.876 -24.6512C366.816 -28.099 360.115 -27.0945 354.258 -34.2872C349.213 -40.4977 346.812 -48.5625 344.594 -56.1474C339.825 -72.4813 338.046 -90.1962 330.431 -105.642C320.164 -126.341 299.879 -125.838 279.34 -127.598C249.263 -130.188 218.911 -132.563 188.74 -135.474C174.552 -136.844 158.508 -137.895 145.827 -145.134C123.663 -157.834 128.879 -184.241 134.003 -204.958M501.523 121.17C477.718 108.05 449.527 102.906 426.826 87.9943C400.163 70.5235 407.059 43.4795 396.279 17.1571C390.139 2.05681 379.526 -6.24126 363.413 -8.99482C355.439 -10.3344 348.567 -8.5513 341.855 -13.8004C336.568 -17.9705 333.719 -24.1082 330.876 -30.0838C323.63 -45.4232 320.349 -63.1174 310.396 -77.1279C298.466 -93.8193 276.691 -93.9863 258.587 -99.7451C231.308 -108.419 209.748 -124.23 180.614 -128.604C166.558 -130.711 150.684 -131.606 138.228 -139.26C118.524 -151.411 120.575 -173.79 124.058 -193.912M484.946 125.948C463.91 112.025 436.876 113.331 416.267 98.9434C392.024 82.0643 402.162 51.8422 392.726 27.6172C386.959 12.7048 375.001 5.27384 359.08 4.25867C340.228 3.03831 330.015 8.53156 318.564 -9.35706C309.278 -23.9228 304.746 -41.4441 293.36 -54.7463C281.039 -69.0663 256.893 -69.6239 242.03 -78.5607C229.874 -85.8618 221.65 -99.2931 209.567 -107.775C199.156 -115.107 186.141 -117.58 173.862 -119.922C161.174 -122.328 146.979 -123.86 135.657 -130.627C118.464 -140.931 116.857 -158.409 117.925 -177.012M472.119 131.061C449.498 127.07 422.187 126.561 405.024 109.027C386.884 90.4369 394.693 61.8936 386.297 39.2507C380.501 23.6085 368.396 15.5743 351.736 14.3457C333.324 12.9855 321.662 19.7968 309.058 3.49849C298.596 -10.0446 293.356 -26.9684 282.616 -40.3783C270.42 -55.5968 249.643 -58.2006 235.343 -69.2722C212.913 -86.5096 197.148 -103.613 167.347 -110.397C137.874 -117.113 116.123 -124.672 112.517 -158.272M467.896 146.99C440.292 146.29 408.617 143.318 393.292 117.1C380.761 95.6414 387.613 70.5078 378.182 48.3944C371.536 32.8275 357.843 25.6705 341.345 24.4352C325.133 23.2289 313.402 28.3374 300.748 15.8179C290.126 5.32717 283.711 -9.55881 275.615 -21.8583C263.06 -40.9202 247.67 -47.8455 230.595 -61.2404C208.527 -78.5333 188.451 -92.821 160.945 -101.079C136.606 -108.37 116.157 -118.866 106.334 -143.603M467.932 167.782C432.181 167.454 391.495 160.627 378.762 122.282C371.722 101.046 378.079 76.7044 368.841 56.3294C353.4 22.2781 314.664 45.3424 291.201 26.6852C279.111 17.026 270.964 1.47979 263.006 -11.3939C258.657 -18.4451 254.307 -27.5268 248.972 -33.8474C242.615 -41.3446 233.275 -47.2986 225.681 -53.2832C203.688 -70.7415 179.148 -80.9484 153.955 -93.2404C132.409 -103.732 113.248 -121.468 97.1781 -139.087M467.225 187.263C427.526 186.731 373.308 179.685 363.801 132.843C359.33 110.852 368.301 85.8755 358.76 65.0661C343.875 32.6978 305.102 52.8396 280.775 36.898C250.818 17.3281 248.056 -23.4542 220.883 -45.4525C198.121 -63.8541 168.491 -72.4318 143.733 -87.9904C116.057 -105.379 88.6119 -123.102 66.0334 -146.953M460.865 199.584C418.182 198.565 368.314 189.676 354.588 142.925C348.219 121.214 356.208 97.0497 347.268 76.0128C334.022 44.9989 296.892 59.6319 272.238 48.6175C258.464 42.479 249.255 29.7782 242.708 16.6439C233.514 -1.66179 232.902 -24.6225 215.126 -37.2579C201.7 -46.8219 185.967 -52.1901 171.035 -58.8498C157.388 -64.8717 145.208 -72.7403 132.351 -80.297C103.057 -97.5386 73.5671 -112.62 49.3793 -137.095M449.183 205.909C408.957 202.393 365.238 191.913 349.168 150.415C340.678 128.467 342.954 103.642 330.491 82.8705C314.888 56.7855 286.84 64.1033 262.479 54.2952C226.188 39.7354 229.503 -8.40187 200.453 -28.6179C177.673 -44.4603 149.311 -56.7854 124.095 -69.645C95.9776 -83.9293 67.7926 -93.9061 44.745 -116.317M435.129 209.813C398.864 203.861 360.318 192.764 343.977 156.557C332.951 132.193 329.441 107.889 311.668 86.3597C293.555 64.4383 271.377 63.3537 246.754 54.0843C212.852 41.3357 207.91 -0.129291 181.711 -21.1521C163.487 -35.8403 138.666 -48.9596 117.056 -58.0272C91.0273 -68.9042 64.6395 -74.6497 43.4427 -94.4959M420.867 213.603C390.52 205.379 357.042 196.065 340.42 166.936C332.852 153.64 330.812 138.494 322.605 125.468C314.356 112.403 303.795 100.408 292.716 89.6513C273.008 70.4752 251.972 60.5315 226.626 51.454C195.881 40.4446 184.42 7.4085 162.392 -13.9064C147.635 -28.2082 129.04 -40.0384 109.819 -47.2948C84.2062 -56.9299 58.0789 -61.2646 37.7452 -80.8618M408.633 219.341C381.51 206.519 350.628 203.109 333.817 175.287C325.671 161.771 323.333 146.272 313.796 133.503C303.188 119.357 288.974 107.429 275.634 95.9935C256.525 79.5545 235.559 59.374 211.268 51.2688C181.996 41.5393 164.497 17.7653 145.83 -5.75794C133.632 -21.0576 120.075 -30.8193 101.287 -37.4435C75.2462 -46.6145 49.9563 -50.3336 30.9472 -72.2997M399.611 228.116C369.21 217.58 343.206 213.281 325.578 183.38C317.419 169.54 314.018 154.855 303.281 142.542C291.522 129.052 277.247 117.614 263.385 106.321C250.574 95.9199 237.176 86.0704 225.257 74.6174C216.846 66.5543 211.342 59.063 200.246 54.8457C173.39 44.6116 150.795 28.3149 135.086 3.61505C109.656 -36.3638 52.5487 -25.6262 25.5757 -64.608M391.022 236.589C356.491 232.313 333.858 222.069 317.106 190.711C309.413 176.364 304.563 162.998 293.113 151.12C280.943 138.499 266.977 127.658 253.487 116.553C240.585 105.912 226.428 95.3624 215.506 82.4879C208.552 74.2841 204.387 65.7634 194.166 61.1043C184.068 56.4807 173.613 55.0394 163.871 49.183C149.796 40.6607 135.027 27.0499 126.226 13.3984C100.78 -25.9706 43.2585 -14.4445 20.4474 -56.9263M382.456 244.614C363.209 244.668 342.948 243.79 328.014 230.105C317.422 220.344 312.292 206.096 306.372 193.382C292.786 164.007 268.296 147.056 243.985 126.525C231.956 116.376 218.821 105.988 209.521 93.0473C202.374 83.1052 199.751 72.5722 188.144 66.7919C176.868 61.1606 163.951 60.1041 152.662 54.1484C139.173 47.0236 125.553 35.7212 117.282 23.104C91.6482 -15.8919 33.0631 -3.55079 13.9994 -48.744M373.938 252.84C352.902 254.836 328.998 256.218 314.212 238.221C304.725 226.669 302.407 211.657 296.742 198.243C285.417 171.496 255.504 155.01 234.406 136.582C222.951 126.572 209.581 115.421 202.162 101.795C196.146 90.7099 195.015 79.9131 183.326 73.1209C172.387 66.7854 158.873 66.0374 147.122 61.6844C132.193 56.121 117.287 46.1301 108.506 32.9651C98.0814 17.3494 86.4198 8.24128 67.664 2.42796C40.5604 -5.92798 19.5291 -13.7602 6.32181 -40.8364M365.324 261.679C343.822 265.197 319.547 268.421 304.546 249.134C295.415 237.364 292.798 221.998 287.493 208.448C276.25 179.748 246.055 166.28 223.989 147.038C212.2 136.798 198.603 124.032 193.355 108.896C189.213 96.9627 188.825 86.4603 176.944 78.945C151.433 62.8486 118.51 70.1217 99.6817 42.6252C88.4553 26.2706 76.0416 21.6198 57.1029 14.3113C30.864 4.25506 14.4422 -15.0145 0.750894 -39.0252" stroke="url(#paint0_linear_3205_48189)" stroke-width="1.07198" stroke-miterlimit="10"/>
<defs>
<linearGradient id="paint0_linear_3205_48189" x1="404.052" y1="-62.2403" x2="218.921" y2="179.136" gradientUnits="userSpaceOnUse">
<stop stop-color="#6FD7C9"/>
<stop offset="0.556898" stop-color="#6FD7C9" stop-opacity="0.5"/>
<stop offset="1" stop-color="#6FD7C9" stop-opacity="0"/>
</linearGradient>
</defs>
</svg>
