<svg width="714" height="491" viewBox="0 0 714 491" fill="none" xmlns="http://www.w3.org/2000/svg">
<path opacity="0.3" d="M384.874 -387.037C351.946 -331.33 335.288 -266.327 296.627 -213.874C265.558 -171.804 214.501 -153.752 172.275 -125.163C149.342 -109.667 128.268 -92.1573 107.814 -73.5626C85.6554 -53.4185 63.8842 -47.7626 33.5905 -46.6004C-1.89422 -45.2059 -39.1609 -51.0167 -73.9484 -42.1067C-116.019 -31.4923 -125.626 2.90773 -126.401 40.8717C-127.253 82.942 -117.103 127.182 -105.249 169.252C-96.4943 200.475 -85.4925 228.677 -87.5844 261.605C-89.1339 285.158 -95.0998 311.423 -114.702 326.686C-151.271 355.353 -207.83 329.941 -244.089 315.065M408.659 -355.194C378.366 -299.487 362.638 -234.019 322.892 -183.736C290.041 -142.208 238.364 -136.087 193.814 -112.301C170.338 -99.8275 149.342 -83.6347 133.769 -61.8635C123.464 -47.3752 120.288 -38.0005 103.165 -30.3302C91.1564 -24.9843 77.1329 -23.0473 64.1942 -21.2653C27.7022 -16.3842 -11.8113 -19.1735 -46.9086 -6.54461C-88.0492 8.2536 -90.296 44.7455 -90.0636 83.2518C-89.7537 147.868 -68.1375 215.196 -74.5682 281.285C-77.0474 306.542 -81.2312 335.519 -97.8889 355.74C-128.57 393.085 -182.184 374.955 -220.303 361.629M432.987 -315.99C405.173 -264.622 390.065 -204.112 354.193 -157.548C319.405 -112.379 267.96 -118.422 219.692 -97.4257C195.519 -86.8888 175.529 -70.7735 163.985 -46.523C156.78 -31.4149 158.174 -18.5536 143.996 -7.93918C131.755 1.20317 116.182 5.15454 101.538 8.79599C70.005 16.6212 36.0698 18.6356 6.00855 31.9617C-34.2798 49.9365 -34.8996 88.6753 -39.8582 127.724C-47.1411 184.902 -54.0367 242.623 -61.9394 299.957C-65.6583 326.919 -68.9124 357.445 -83.7106 381.076C-109.666 422.371 -159.639 410.362 -198.765 398.973M452.047 -276.786C425.162 -232.392 413.153 -179.01 382.937 -136.862C347.53 -87.3536 296.472 -102.617 245.414 -84.0996C216.128 -73.5626 199.47 -53.9609 192.962 -23.4347C189.785 -8.32658 192.652 4.9221 182.115 17.3185C173.747 27.0807 161.816 32.0392 150.194 36.9978C120.365 49.6266 86.3528 54.5077 58.8482 72.405C26.0752 93.8663 24.0608 135.394 11.6644 169.484C-7.0077 220.852 -38.851 260.753 -49.4655 315.995C-54.579 342.647 -57.5232 372.863 -73.0962 396.029C-97.8115 432.676 -140.347 427.02 -178.466 418.807M459.872 -244.788C431.67 -205.739 432.058 -154.062 403.003 -115.865C368.913 -70.9284 312.045 -92.6221 265.093 -76.5068C236.194 -66.6671 221.086 -44.4311 217.91 -14.1374C214.113 21.7347 223.798 41.6465 188.778 62.1006C160.266 78.6807 126.486 85.9636 100.221 106.65C71.942 129.041 68.9978 175.063 50.7906 202.722C35.9149 225.346 9.65001 239.989 -7.47253 262.38C-22.2707 281.672 -28.0041 306.31 -33.4275 329.553C-39.0059 353.571 -43.0347 380.533 -56.8257 401.607C-77.8221 433.605 -111.292 435.31 -146.7 431.823M468.627 -219.918C459.252 -177.073 456.153 -125.008 421.366 -93.6293C384.486 -60.4689 330.639 -77.5915 286.787 -63.3356C256.493 -53.496 240.223 -31.0275 236.582 0.66086C232.553 35.6807 244.639 58.459 212.564 81.2374C185.911 100.142 153.216 108.819 126.796 128.266C96.8122 150.347 90.2266 189.784 67.9906 216.203C33.3581 257.654 -0.499631 286.398 -15.7627 342.724C-30.8708 398.431 -46.9862 439.339 -111.37 443.6M498.688 -210.62C495.202 -158.013 487.067 -97.8131 435.854 -70.6185C393.939 -48.3824 346.522 -63.413 303.6 -47.1428C273.384 -35.6761 258.663 -10.1085 255.021 21.2699C251.457 52.106 260.29 74.8843 235.42 98.0501C214.578 117.497 185.679 128.576 161.583 143.065C124.239 165.533 109.828 194.355 82.9438 225.888C48.2338 266.641 19.4121 303.831 1.51479 355.663C-14.2906 401.53 -35.9068 439.726 -83.8654 456.539M538.357 -209.071C534.948 -140.891 518.755 -63.8004 444.609 -42.4941C403.546 -30.7175 357.602 -44.741 318.011 -28.7031C251.845 -1.89587 292.83 73.7996 255.409 117.11C236.039 139.423 205.746 153.756 180.566 167.935C166.775 175.683 149.11 183.275 136.636 192.96C121.837 204.504 109.751 221.859 97.742 235.883C62.7221 276.481 41.3382 322.503 15.9256 369.609C-5.7681 409.897 -41.0978 445.072 -75.9627 474.359M575.469 -206.204C571.362 -130.509 553.697 -27.6184 463.591 -13.1301C421.288 -6.31209 374.337 -25.3716 333.894 -8.79136C270.982 17.0861 306.389 92.6267 274.081 137.796C234.412 193.425 156.392 195.517 112.308 245.645C75.4284 287.638 56.7563 343.499 25.1455 389.521C-10.1843 440.966 -46.1338 491.946 -93.3951 533.164M598.479 -193.111C593.211 -111.759 572.369 -17.3139 482.108 5.23206C440.193 15.6915 394.713 -1.43097 353.883 13.9871C293.683 36.8429 318.708 108.82 295.775 154.996C282.991 180.796 258.043 197.376 232.475 208.843C196.836 224.958 152.983 224.339 127.493 257.267C108.201 282.137 96.7347 311.733 82.8662 339.703C70.3149 365.27 54.3545 387.894 38.9365 411.834C3.76168 466.378 -27.3069 521.465 -75.8853 565.705M609.636 -170.332C599.797 -93.8617 576.398 -11.2706 495.977 16.1564C453.441 30.6447 406.258 24.369 365.659 46.5276C314.679 74.2645 326.456 128.344 305.847 174.056C275.243 242.158 183.665 232.086 142.834 285.933C110.836 328.158 85.113 381.308 58.6156 428.415C29.1742 480.944 7.94534 533.939 -36.6043 576.164M615.989 -143.215C601.811 -74.4923 577.638 -1.81838 507.288 26.5384C459.95 45.6754 413.308 50.479 370.85 82.7096C327.618 115.56 323.822 157.785 304.22 204.039C277.258 267.726 197.766 273.924 155.618 322.27C126.176 355.895 99.214 402.227 80.232 442.748C57.4536 491.559 44.4374 541.454 4.92385 580.348M622.11 -115.71C604.058 -58.4545 583.681 4.6897 526.813 34.1312C500.858 47.5348 471.804 50.2465 446.313 64.8897C420.746 79.6105 397.038 98.8249 375.654 119.124C337.535 155.229 316.926 194.587 297.634 242.236C274.236 300.034 210.317 319.326 167.937 359.692C139.502 386.732 115.484 421.287 100.144 457.391C79.7671 505.505 69.4626 555.013 30.4914 592.28M632.105 -91.9248C605.53 -41.177 596.62 17.4735 542.231 47.3799C515.811 61.8682 486.059 65.1222 460.957 82.3222C433.142 101.459 409.279 127.647 386.423 152.207C353.573 187.382 313.44 225.811 296.085 271.522C275.243 326.609 228.524 358.142 182.192 391.923C152.054 414.004 132.374 439.106 118.274 474.436C98.7492 523.402 89.6843 571.36 46.2969 605.915M648.142 -74.0275C625.674 -16.849 615.447 32.4267 557.029 63.7276C529.989 78.2159 501.71 83.5618 477.382 103.086C450.73 124.47 427.796 150.812 405.173 176.38C384.331 200.011 364.497 224.803 341.719 246.652C325.681 262.07 310.96 271.987 302.05 292.829C280.434 343.267 247.584 385.104 199.238 413.151C120.985 458.553 137.023 568.339 60.5527 616.762M663.638 -56.9824C652.791 8.56362 631.485 50.9439 570.355 80.4628C542.386 94.0214 516.508 102.234 492.955 123.153C467.93 145.389 446.159 171.189 423.922 196.059C402.616 219.845 381.387 246.032 355.975 265.867C339.782 278.495 323.202 285.778 313.517 304.915C303.91 323.82 300.346 343.654 288.414 361.784C271.059 387.971 243.942 415.088 217.212 430.816C140.122 476.296 157.632 586.934 74.8086 627.144M678.281 -40.0149C676.887 -3.2905 673.633 35.2934 646.361 62.7204C626.914 82.1673 599.332 90.8447 574.616 101.149C517.515 124.78 483.27 170.182 442.207 214.964C421.908 237.122 401.067 261.373 375.654 278.108C356.13 290.969 335.83 295.153 323.899 316.847C312.277 337.921 309.256 362.481 297.014 383.555C282.371 408.735 259.748 433.838 235.032 448.636C158.639 494.503 177.621 607.233 89.9167 640.083M693.312 -23.1248C695.481 17.1636 696.256 62.8753 660.771 89.6826C637.993 106.883 609.171 110.137 583.139 119.899C531.229 139.423 497.449 195.207 460.647 234.023C440.658 255.097 418.344 279.735 391.769 292.829C370.153 303.443 349.467 304.76 335.598 326.531C322.659 346.908 320.18 372.631 310.96 394.712C299.184 422.759 278.962 450.418 253.162 466.146C222.558 484.818 204.274 506.357 191.722 541.687C173.67 592.744 157.09 632.258 104.405 655.346M709.505 -6.0022C714.541 35.2933 718.802 81.8574 680.838 108.975C657.672 125.477 628.153 129.274 601.888 138.339C546.26 157.553 518.213 214.111 479.784 254.71C459.33 276.403 433.917 301.351 404.631 310.184C381.542 317.157 361.475 317.079 346.212 339.16C313.517 386.577 324.829 449.953 270.904 483.733C238.829 503.878 228.989 527.198 213.571 562.76C192.342 612.036 154.301 641.865 107.427 666.116" stroke="url(#paint0_linear_3191_47473)" stroke-width="1.07198" stroke-miterlimit="10"/>
<defs>
<linearGradient id="paint0_linear_3191_47473" x1="94.5446" y1="-105.113" x2="540.627" y2="266.878" gradientUnits="userSpaceOnUse">
<stop stop-color="#6FD7C9"/>
<stop offset="0.556898" stop-color="#6FD7C9" stop-opacity="0.5"/>
<stop offset="1" stop-color="#6FD7C9" stop-opacity="0"/>
</linearGradient>
</defs>
</svg>
