<svg width="194" height="29" viewBox="0 0 194 29" fill="none" xmlns="http://www.w3.org/2000/svg">
<g clip-path="url(#clip0_3847_41863)">
<path d="M37.5601 14.2H34.5601V12.2L37.7101 12.09L38.0001 9H40.2001V12.1H45.3701V14.2H40.2301V18.87C40.1456 19.6279 40.353 20.3895 40.8101 21C41.0822 21.2384 41.3995 21.4197 41.743 21.533C42.0866 21.6464 42.4495 21.6896 42.8101 21.66C43.2666 21.6618 43.7221 21.6183 44.1701 21.53C44.5647 21.4458 44.9524 21.3321 45.3301 21.19L45.8201 23.14C45.2686 23.3203 44.7078 23.4706 44.1401 23.59C43.4814 23.7213 42.8116 23.7883 42.1401 23.79C41.4083 23.7883 40.683 23.6527 40.0001 23.39C39.448 23.1801 38.9567 22.8365 38.5701 22.39C38.1994 21.9406 37.933 21.4147 37.7901 20.85C37.6221 20.1967 37.5381 19.5246 37.5401 18.85L37.5601 14.2Z" fill="white"/>
<path d="M48.0001 17.7896C47.99 16.9305 48.1603 16.0788 48.5001 15.2896C48.8119 14.5846 49.2567 13.9463 49.8101 13.4096C50.34 12.8897 50.9739 12.4875 51.6701 12.2296C53.0922 11.68 54.668 11.68 56.0901 12.2296C56.7175 12.464 57.2856 12.8337 57.754 13.3124C58.2224 13.7912 58.5795 14.3672 58.8001 14.9996C59.1022 15.9311 59.2077 16.9152 59.1101 17.8896C59.1237 18.0701 59.0964 18.2512 59.0301 18.4196H50.7601C50.789 18.8881 50.914 19.3456 51.1273 19.7636C51.3406 20.1817 51.6377 20.5513 52.0001 20.8496C52.74 21.4203 53.6563 21.714 54.5901 21.6796C55.1495 21.6905 55.7069 21.6094 56.2401 21.4396C56.7795 21.2689 57.2992 21.0409 57.7901 20.7596L58.6901 22.4196C58.0454 22.8203 57.3534 23.1394 56.6301 23.3696C55.8623 23.6221 55.0583 23.7471 54.2501 23.7396C53.4227 23.7524 52.5997 23.617 51.8201 23.3396C51.0932 23.096 50.4251 22.7033 49.8586 22.1867C49.2921 21.6702 48.8396 21.041 48.5301 20.3396C48.1688 19.5387 47.9879 18.6682 48.0001 17.7896ZM56.6601 16.7896C56.7108 16.0158 56.4599 15.2525 55.9601 14.6596C55.6938 14.3885 55.3714 14.1791 55.0155 14.0461C54.6596 13.9131 54.2789 13.8597 53.9001 13.8896C53.5218 13.8877 53.1462 13.952 52.7901 14.0796C52.4246 14.1973 52.0852 14.384 51.7901 14.6296C51.1577 15.1826 50.7576 15.9541 50.6701 16.7896H56.6601Z" fill="white"/>
<path d="M61.7001 17.7997C61.6908 16.9279 61.8717 16.0646 62.2301 15.2697C62.5603 14.5551 63.0374 13.9179 63.6301 13.3997C64.2321 12.8767 64.9325 12.479 65.6901 12.2297C66.4856 11.9594 67.3199 11.8209 68.1601 11.8197C69 11.8102 69.8333 11.97 70.6101 12.2897C71.2619 12.5594 71.8611 12.942 72.3801 13.4197L71.1001 15.0797C70.6876 14.7516 70.2337 14.4793 69.7501 14.2697C69.044 13.9947 68.2759 13.9192 67.5299 14.0515C66.7838 14.1837 66.0885 14.5187 65.5201 15.0197C65.1629 15.3841 64.8844 15.818 64.7021 16.2945C64.5197 16.7711 64.4373 17.28 64.4601 17.7897C64.4531 18.3228 64.5481 18.8524 64.7401 19.3497C64.9185 19.7942 65.1837 20.1987 65.5201 20.5397C65.862 20.87 66.2666 21.1284 66.7101 21.2997C67.2002 21.479 67.7182 21.5704 68.2401 21.5697C68.8469 21.5785 69.4481 21.4521 70.0001 21.1997C70.5188 20.9632 71.0086 20.6679 71.4601 20.3197L72.5901 21.9997C71.9516 22.5615 71.2117 22.9959 70.4101 23.2797C69.6297 23.5573 68.8084 23.7027 67.9801 23.7097C67.1338 23.7129 66.2927 23.5778 65.4901 23.3097C64.7521 23.0665 64.0715 22.6752 63.4901 22.1597C62.9179 21.6371 62.4673 20.9954 62.1701 20.2797C61.8407 19.4813 61.6806 18.6232 61.7001 17.7597V17.7997Z" fill="white"/>
<path d="M75.3401 7.12012H78.0001V11.3301L77.8301 13.7601C78.3624 13.2292 78.9606 12.7688 79.6101 12.3901C80.3092 11.9899 81.1048 11.7893 81.9101 11.8101C82.4566 11.7596 83.0072 11.8414 83.5154 12.0485C84.0236 12.2556 84.4746 12.582 84.8301 13.0001C85.5104 14.0056 85.8375 15.2086 85.7601 16.4201V23.4201H83.0701V16.7701C83.1191 16.07 82.9515 15.3717 82.5901 14.7701C82.3871 14.5382 82.131 14.3589 81.8437 14.2475C81.5564 14.136 81.2464 14.0958 80.9401 14.1301C80.4204 14.1227 79.9086 14.2576 79.4601 14.5201C78.928 14.8537 78.4379 15.2499 78.0001 15.7001V23.4601H75.3401V7.12012Z" fill="white"/>
<path d="M89.8801 12.1H92.0801L92.3101 14.67H92.3801C92.9033 13.7984 93.631 13.0673 94.5001 12.54C95.3222 12.0506 96.2635 11.798 97.2201 11.81C97.619 11.8081 98.0172 11.8416 98.4101 11.91C98.7567 11.9893 99.0925 12.1102 99.4101 12.27L98.8501 14.52C98.5225 14.4102 98.1885 14.32 97.8501 14.25C97.4969 14.1882 97.1385 14.1614 96.7801 14.17C95.9761 14.1797 95.1905 14.4116 94.5101 14.84C93.6513 15.4328 92.9619 16.2393 92.5101 17.18V23.45H89.8701L89.8801 12.1Z" fill="white"/>
<path d="M101.73 17.7896C101.72 16.9305 101.89 16.0788 102.23 15.2896C102.542 14.5846 102.987 13.9463 103.54 13.4096C104.07 12.8897 104.704 12.4875 105.4 12.2296C106.822 11.68 108.398 11.68 109.82 12.2296C110.442 12.4677 111.004 12.839 111.467 13.3176C111.93 13.7961 112.283 14.3702 112.5 14.9996C112.802 15.9311 112.908 16.9152 112.81 17.8896C112.824 18.0701 112.796 18.2512 112.73 18.4196H104.46C104.494 18.8802 104.621 19.3291 104.832 19.7397C105.043 20.1503 105.335 20.5142 105.69 20.8096C106.43 21.3803 107.346 21.674 108.28 21.6396C108.839 21.6505 109.397 21.5694 109.93 21.3996C110.469 21.2289 110.989 21.0009 111.48 20.7196L112.38 22.3796C111.735 22.7803 111.043 23.0994 110.32 23.3296C109.552 23.5821 108.748 23.7071 107.94 23.6996C107.113 23.7124 106.29 23.577 105.51 23.2996C104.783 23.056 104.115 22.6633 103.548 22.1467C102.982 21.6302 102.529 21.001 102.22 20.2996C101.878 19.5079 101.711 18.6518 101.73 17.7896ZM110.39 16.7896C110.441 16.0158 110.19 15.2525 109.69 14.6596C109.424 14.3885 109.101 14.1791 108.745 14.0461C108.389 13.9131 108.009 13.8597 107.63 13.8896C107.252 13.8877 106.876 13.952 106.52 14.0796C106.155 14.1973 105.815 14.384 105.52 14.6296C105.229 14.8872 104.982 15.1914 104.79 15.5296C104.581 15.9175 104.449 16.3418 104.4 16.7796L110.39 16.7896Z" fill="white"/>
<path d="M114.67 12.0996H117.36L119.56 17.9996C119.78 18.5596 119.97 19.1296 120.15 19.6996L120.69 21.4196H120.78L121.33 19.6996C121.51 19.1296 121.71 18.5696 121.92 17.9996L124.12 12.0996H126.67L122.25 23.4696H119.25L114.67 12.0996Z" fill="white"/>
<path d="M129.09 12.0996H136.68V23.4596H134V14.1996H129.07L129.09 12.0996ZM135.16 10.0996C134.661 10.1115 134.176 9.93676 133.8 9.60957C133.621 9.44484 133.481 9.2433 133.387 9.01886C133.294 8.79442 133.251 8.55243 133.26 8.30958C133.251 8.06531 133.295 7.82199 133.388 7.59601C133.481 7.37003 133.622 7.16665 133.8 6.99958C134.181 6.68061 134.663 6.50586 135.16 6.50586C135.657 6.50586 136.139 6.68061 136.52 6.99958C136.697 7.16755 136.835 7.37133 136.927 7.59727C137.018 7.8232 137.06 8.06606 137.05 8.30958C137.063 8.55198 137.023 8.79434 136.931 9.01915C136.84 9.24397 136.699 9.44562 136.52 9.60957C136.141 9.93912 135.652 10.114 135.15 10.0996H135.16Z" fill="white"/>
<path d="M142 17.8C141.99 16.9408 142.16 16.0892 142.5 15.3C142.808 14.59 143.253 13.9478 143.81 13.41C144.342 12.8921 144.975 12.4903 145.67 12.23C146.358 11.9597 147.091 11.8206 147.83 11.82C148.606 11.8085 149.377 11.9478 150.1 12.23C150.721 12.482 151.283 12.86 151.75 13.34C152.199 13.8299 152.54 14.4092 152.75 15.04C152.986 15.7424 153.104 16.479 153.1 17.22V17.94C153.083 18.118 153.057 18.2949 153.02 18.47H144.75C144.785 18.9311 144.913 19.3802 145.128 19.7896C145.343 20.199 145.64 20.5599 146 20.85C146.743 21.4169 147.656 21.7132 148.59 21.69C149.146 21.6909 149.698 21.61 150.23 21.45C150.771 21.2699 151.293 21.0389 151.79 20.76L152.69 22.43C152.045 22.8307 151.353 23.1498 150.63 23.38C149.861 23.6276 149.058 23.7524 148.25 23.75C147.423 23.7529 146.602 23.6177 145.82 23.35C145.081 23.0995 144.401 22.7014 143.82 22.18C143.25 21.6592 142.8 21.0212 142.5 20.31C142.151 19.5203 141.98 18.6632 142 17.8V17.8ZM150.65 16.8C150.704 16.0275 150.456 15.2643 149.96 14.67C149.694 14.3989 149.371 14.1895 149.016 14.0565C148.66 13.9234 148.279 13.87 147.9 13.9C147.522 13.898 147.146 13.9623 146.79 14.09C146.425 14.2076 146.085 14.3944 145.79 14.64C145.499 14.8976 145.252 15.2017 145.06 15.54C144.851 15.9278 144.719 16.3522 144.67 16.79L150.65 16.8Z" fill="white"/>
<path d="M154.11 12.0996H156.78L157.78 17.9996C157.873 18.5396 157.953 19.0796 158.02 19.6196C158.09 20.1596 158.16 20.6996 158.24 21.2596H158.33C158.41 20.7096 158.5 20.1596 158.59 19.6196C158.68 19.0796 158.79 18.5396 158.91 17.9996L160 13.1996H162L163.1 17.9996C163.22 18.5396 163.33 19.0796 163.42 19.6196C163.51 20.1596 163.61 20.6996 163.7 21.2596H163.8C163.89 20.7096 163.97 20.1596 164.04 19.6196C164.11 19.0796 164.18 18.5396 164.26 17.9996L165.26 12.0996H167.74L165.63 23.4596H162.48L161.48 18.7196C161.39 18.1796 161.3 17.6396 161.22 17.1096C161.14 16.5796 161.04 16.0096 160.94 15.4096H160.84C160.76 15.8596 160.69 16.3396 160.62 16.8496C160.55 17.3596 160.46 17.9996 160.34 18.7396L159.34 23.4596H156.26L154.11 12.0996Z" fill="white"/>
<path d="M168.86 17.8002C168.85 16.941 169.02 16.0894 169.36 15.3002C169.668 14.5902 170.114 13.948 170.67 13.4102C171.204 12.8955 171.837 12.4941 172.53 12.2302C173.956 11.6837 175.534 11.6837 176.96 12.2302C177.581 12.4822 178.143 12.8602 178.61 13.3402C179.059 13.8301 179.4 14.4094 179.61 15.0402C179.851 15.7414 179.969 16.4788 179.96 17.2202V17.9402C179.951 18.1197 179.921 18.2976 179.87 18.4702H171.6C171.631 18.93 171.756 19.3786 171.968 19.7881C172.179 20.1975 172.473 20.559 172.83 20.8502C173.573 21.4171 174.486 21.7134 175.42 21.6902C175.976 21.6926 176.53 21.6083 177.06 21.4402C177.602 21.2676 178.125 21.0398 178.62 20.7602L179.52 22.4302C178.87 22.8211 178.179 23.1397 177.46 23.3802C176.69 23.6229 175.888 23.7477 175.08 23.7502C174.25 23.7524 173.426 23.6172 172.64 23.3502C171.903 23.0957 171.223 22.6981 170.64 22.1802C170.07 21.6594 169.62 21.0214 169.32 20.3102C168.994 19.5146 168.837 18.6597 168.86 17.8002V17.8002ZM177.52 16.8002C177.571 16.0264 177.32 15.263 176.82 14.6702C176.554 14.3991 176.231 14.1897 175.876 14.0567C175.52 13.9236 175.139 13.8702 174.76 13.9002C174.382 13.8982 174.006 13.9625 173.65 14.0902C173.285 14.2078 172.945 14.3946 172.65 14.6402C172.359 14.8978 172.112 15.2019 171.92 15.5402C171.711 15.928 171.579 16.3524 171.53 16.7902L177.52 16.8002Z" fill="white"/>
<path d="M183.86 12.0996H186.06L186.29 14.6696H186.36C186.886 13.8002 187.613 13.0698 188.48 12.5396C189.306 12.0604 190.245 11.8086 191.2 11.8096C191.602 11.8081 192.004 11.8416 192.4 11.9096C192.747 11.989 193.082 12.1098 193.4 12.2696L192.85 14.5196C192.522 14.4098 192.188 14.3196 191.85 14.2496C191.493 14.1882 191.132 14.1614 190.77 14.1696C189.966 14.1794 189.18 14.4113 188.5 14.8396C187.63 15.4203 186.938 16.2301 186.5 17.1796V23.4496H183.81L183.86 12.0996Z" fill="white"/>
<path d="M14.85 0L19.44 9.3L29.7 10.79L22.27 18L24 28.25L14.82 23.42L5.67 28.24L7.42 18L0 10.79L10.26 9.3L14.85 0Z" fill="#EE353E"/>
</g>
<defs>
<clipPath id="clip0_3847_41863">
<rect width="193.4" height="28.25" fill="white"/>
</clipPath>
</defs>
</svg>
