<svg width="70" height="48" viewBox="0 0 70 48" fill="none" xmlns="http://www.w3.org/2000/svg">
<circle cx="35" cy="35" r="13" fill="#2FC3C2"/>
<path d="M67.5008 29.7823C66.1829 22.2909 62.3175 15.4848 56.5586 10.5155C50.7997 5.54626 43.5009 2.71904 35.8972 2.51221C28.2936 2.30538 20.8519 4.73165 14.8314 9.38048C8.81084 14.0293 4.58113 20.6153 2.85791 28.024L17.3396 31.3923C18.2864 27.3216 20.6104 23.703 23.9184 21.1487C27.2263 18.5944 31.3151 17.2613 35.4929 17.375C39.6708 17.4886 43.681 19.042 46.8452 21.7724C50.0094 24.5027 52.1333 28.2423 52.8574 32.3585L67.5008 29.7823Z" stroke="#30333B" stroke-width="4"/>
<circle cx="35" cy="35" r="5" stroke="#30333B" stroke-width="4"/>
<path d="M37.5 32.5L52.5 19" stroke="#30333B" stroke-width="4"/>
<path d="M55.4399 16.625L60.4998 12" stroke="#30333B" stroke-width="4"/>
<path d="M16.0596 16.625L10.9998 12" stroke="#30333B" stroke-width="4"/>
<path d="M35.2072 8.57014L35.2073 2" stroke="#30333B" stroke-width="4"/>
</svg>
