<svg width="80" height="80" viewBox="0 0 80 80" fill="none" xmlns="http://www.w3.org/2000/svg">
<circle cx="40" cy="40" r="22" fill="#2FC3C2"/>
<path d="M38.8656 6.78119C39.5487 6.31077 40.4513 6.31078 41.1344 6.78119L47.106 10.8937C47.4845 11.1543 47.9411 11.2766 48.3992 11.2401L55.627 10.6645C56.4538 10.5986 57.2354 11.0499 57.5918 11.7988L60.7072 18.3462C60.9046 18.7611 61.2389 19.0954 61.6538 19.2928L68.2012 22.4082C68.9501 22.7646 69.4014 23.5462 69.3355 24.373L68.7599 31.6008C68.7234 32.0589 68.8457 32.5155 69.1063 32.894L73.2188 38.8656C73.6892 39.5487 73.6892 40.4513 73.2188 41.1344L69.1063 47.106C68.8457 47.4845 68.7234 47.9411 68.7599 48.3992L69.3355 55.627C69.4014 56.4538 68.9501 57.2354 68.2012 57.5918L61.6538 60.7072C61.2389 60.9046 60.9046 61.2389 60.7072 61.6538L57.5918 68.2012C57.2354 68.9501 56.4538 69.4014 55.627 69.3355L48.3992 68.7599C47.9411 68.7234 47.4845 68.8457 47.106 69.1063L41.1344 73.2188C40.4513 73.6892 39.5487 73.6892 38.8656 73.2188L32.894 69.1063C32.5155 68.8457 32.0589 68.7234 31.6008 68.7599L24.373 69.3355C23.5462 69.4014 22.7646 68.9501 22.4082 68.2012L19.2928 61.6538C19.0954 61.2389 18.7611 60.9046 18.3462 60.7072L11.7988 57.5918C11.0499 57.2354 10.5986 56.4538 10.6645 55.627L11.2401 48.3992C11.2766 47.9411 11.1543 47.4845 10.8937 47.106L6.78119 41.1344C6.31077 40.4513 6.31078 39.5487 6.78119 38.8656L10.8937 32.894C11.1543 32.5155 11.2766 32.0589 11.2401 31.6008L10.6645 24.373C10.5986 23.5462 11.0499 22.7646 11.7988 22.4082L18.3462 19.2928C18.7611 19.0954 19.0954 18.7611 19.2928 18.3462L22.4082 11.7988C22.7646 11.0499 23.5462 10.5986 24.373 10.6645L31.6008 11.2401C32.0589 11.2766 32.5155 11.1543 32.894 10.8937L38.8656 6.78119Z" stroke="#30333B" stroke-width="4"/>
<rect x="27" y="34" width="6" height="14" stroke="#30333B" stroke-width="4"/>
<path d="M33 34.3L44.0994 28.4257C44.5554 28.1844 45.1201 28.3296 45.4032 28.7609L46.5703 30.5392C46.7329 30.787 46.7773 31.0942 46.6913 31.3778L45.2576 36.1113C45.0746 36.7154 45.4901 37.3358 46.1183 37.3966L53.5603 38.1165C54.2562 38.1839 54.67 38.9262 54.3613 39.5535L50.0024 48.409C49.8259 48.7676 49.4529 48.9867 49.0537 48.9661L33.4231 48.16" stroke="#30333B" stroke-width="4"/>
</svg>
